<svg xmlns="http://www.w3.org/2000/svg" fill-rule="evenodd" stroke-linejoin="round" stroke-miterlimit="2" clip-rule="evenodd" viewBox="0 0 711 764">
  <g id="owl-blue" fill-rule="nonzero">
    <path id="ob-body" fill="#6acef5" d="M355.4 52.91c-150.833 0-313.491 123.558-280.962 365.413 26.525 197.175 115.341 320.72 280.962 320.72 165.621 0 254.438-123.545 280.963-320.72C668.892 176.468 506.234 52.91 355.4 52.91z"/>
    <g id="ob-tummy">
      <path id="ob-tummy-bg" fill="#b1e3f9" d="M355.4 416.681c-166.833 0-192.858 157.758-195.887 231.842 46.479 58.07 111.096 90.52 195.887 90.52 84.792 0 149.409-32.45 195.884-90.52-3.025-74.084-29.055-231.842-195.884-231.842z"/>
      <g id="ob-tummy-feathers" fill="#fff">
        <path id="ob-tummy-feather" d="M263.563 502.448h27.508s-12.379 34.012-27.508 0z"/>
        <path id="ob-tummy-feather1" d="M291.071 502.448h27.504s-12.379 34.012-27.504 0z"/>
        <path id="ob-tummy-feather2" d="M318.575 502.448h27.509s-12.38 34.012-27.509 0z"/>
        <path id="ob-tummy-feather3" d="M346.084 502.448h27.504s-12.375 34.012-27.504 0z"/>
        <path id="ob-tummy-feather4" d="M373.588 502.448h27.508s-12.379 34.012-27.508 0z"/>
        <path id="ob-tummy-feather5" d="M401.096 502.448h27.508s-12.379 34.012-27.508 0z"/>
        <path id="ob-tummy-feather6" d="M428.604 502.448h27.505s-12.375 34.012-27.505 0z"/>
        <path id="ob-tummy-feather7" d="M208.55 542.373h27.505s-12.376 34.012-27.505 0z"/>
        <path id="ob-tummy-feather8" d="M236.055 542.373h27.508s-12.379 34.012-27.508 0z"/>
        <path id="ob-tummy-feather9" d="M263.563 542.373h27.508s-12.379 34.012-27.508 0z"/>
        <path id="ob-tummy-feather10" d="M291.071 542.373h27.504s-12.379 34.012-27.504 0z"/>
        <path id="ob-tummy-feather11" d="M318.575 542.373h27.509s-12.38 34.012-27.509 0z"/>
        <path id="ob-tummy-feather12" d="M346.084 542.373h27.504s-12.375 34.012-27.504 0z"/>
        <path id="ob-tummy-feather13" d="M373.588 542.373h27.508s-12.379 34.012-27.508 0z"/>
        <path id="ob-tummy-feather14" d="M401.096 542.373h27.508s-12.379 34.012-27.508 0z"/>
        <path id="ob-tummy-feather15" d="M428.604 542.373h27.505s-12.375 34.012-27.505 0z"/>
        <path id="ob-tummy-feather16" d="M456.109 542.373h27.508s-12.379 34.012-27.508 0z"/>
        <path id="ob-tummy-feather17" d="M483.617 542.373h27.508s-12.379 34.012-27.508 0z"/>
        <path id="ob-tummy-feather18" d="M208.55 585.256h27.505s-12.376 34.012-27.505 0z"/>
        <path id="ob-tummy-feather19" d="M236.055 585.256h27.508s-12.379 34.012-27.508 0z"/>
        <path id="ob-tummy-feather20" d="M263.563 585.256h27.508s-12.379 34.012-27.508 0z"/>
        <path id="ob-tummy-feather21" d="M291.071 585.256h27.504s-12.379 34.012-27.504 0z"/>
        <path id="ob-tummy-feather22" d="M318.575 585.256h27.509s-12.38 34.012-27.509 0z"/>
        <path id="ob-tummy-feather23" d="M346.084 585.256h27.504s-12.375 34.012-27.504 0z"/>
        <path id="ob-tummy-feather24" d="M373.588 585.256h27.508s-12.379 34.012-27.508 0z"/>
        <path id="ob-tummy-feather25" d="M401.096 585.256h27.508s-12.379 34.012-27.508 0z"/>
        <path id="ob-tummy-feather26" d="M428.604 585.256h27.505s-12.375 34.012-27.505 0z"/>
        <path id="ob-tummy-feather27" d="M456.109 585.256h27.508s-12.379 34.012-27.508 0z"/>
        <path id="ob-tummy-feather28" d="M483.617 585.256h27.508s-12.379 34.012-27.508 0z"/>
        <path id="ob-tummy-feather29" d="M236.055 628.139h27.508s-12.379 34.013-27.508 0z"/>
        <path id="ob-tummy-feather30" d="M263.563 628.139h27.508s-12.379 34.013-27.508 0z"/>
        <path id="ob-tummy-feather31" d="M291.071 628.139h27.504s-12.379 34.013-27.504 0z"/>
        <path id="ob-tummy-feather32" d="M318.575 628.139h27.509s-12.38 34.013-27.509 0z"/>
        <path id="ob-tummy-feather33" d="M346.084 628.139h27.504s-12.375 34.013-27.504 0z"/>
        <path id="ob-tummy-feather34" d="M373.588 628.139h27.508s-12.379 34.013-27.508 0z"/>
        <path id="ob-tummy-feather35" d="M401.096 628.139h27.508s-12.379 34.013-27.508 0z"/>
        <path id="ob-tummy-feather36" d="M428.604 628.139h27.505s-12.375 34.013-27.505 0z"/>
        <path id="ob-tummy-feather37" d="M456.109 628.139h27.508s-12.379 34.013-27.508 0z"/>
        <path id="ob-tummy-feather38" d="M263.563 671.023h27.508s-12.379 34.012-27.508 0z"/>
        <path id="ob-tummy-feather39" d="M291.071 671.023h27.504s-12.379 34.012-27.504 0z"/>
        <path id="ob-tummy-feather40" d="M318.575 671.023h27.509s-12.38 34.012-27.509 0z"/>
        <path id="ob-tummy-feather41" d="M346.084 671.023h27.504s-12.375 34.012-27.504 0z"/>
        <path id="ob-tummy-feather42" d="M373.588 671.023h27.508s-12.379 34.012-27.508 0z"/>
        <path id="ob-tummy-feather43" d="M401.096 671.023h27.508s-12.379 34.012-27.508 0z"/>
        <path id="ob-tummy-feather44" d="M428.604 671.023h27.505s-12.375 34.012-27.505 0z"/>
      </g>
    </g>
    <g id="ob-head" fill="#b1e3f9">
      <g id="ob-ears">
        <path id="ob-ear-right" d="M355.4 262.889S340.984 94.702 560.234 20.456c0 0 90.637-27.842 98.591-18.562 7.959 9.283-18.271 42.654-18.271 42.654s21.28-6.917 19.775 8.362c-1.504 15.275-28.02 29.863-28.02 29.863s24.42-1.33 18.841 11.929c-5.583 13.258-21.491 20.316-21.491 20.316s11.187.9 10.895 10.18c-.287 9.279-21.504 19.162-21.504 19.162s13.259-7.858 13.259 8.367-10.013 22.429-10.013 22.429L355.4 262.889z"/>
        <path id="ob-ear-left" d="M356.717 262.889S371.133 94.702 151.888 20.456c0 0-90.642-27.842-98.596-18.562-7.954 9.283 18.271 42.654 18.271 42.654s-21.275-6.917-19.775 8.362c1.504 15.275 28.021 29.863 28.021 29.863s-24.421-1.33-18.838 11.929c5.579 13.258 21.488 20.316 21.488 20.316s-11.188.9-10.896 10.18c.291 9.279 21.504 19.162 21.504 19.162s-13.258-7.858-13.258 8.367 10.012 22.429 10.012 22.429l266.896 87.733z"/>
      </g>
      <path id="ob-head-right" d="M651.15 262.889c0 81.671-66.208 147.875-147.875 147.875-81.671 0-147.875-66.204-147.875-147.875 0-81.666 66.204-147.871 147.875-147.871 81.667 0 147.875 66.205 147.875 147.871z"/>
      <path id="ob-head-left" d="M355.4 262.889c0 81.671-66.204 147.875-147.875 147.875-81.666 0-147.875-66.204-147.875-147.875 0-81.666 66.209-147.871 147.875-147.871 81.671 0 147.875 66.205 147.875 147.871z"/>
    </g>
    <g id="ob-eyes">
      <g id="ob-eye-left">
        <path fill="#fff" d="M319.146 262.889c0 60.846-49.325 110.167-110.167 110.167-60.841 0-110.166-49.321-110.166-110.167 0-60.841 49.325-110.162 110.166-110.162 60.842 0 110.167 49.321 110.167 110.162z"/>
        <g id="ob-eyeball-left">
          <path fill="#404042" d="M267.388 262.889c0 32.263-26.15 58.413-58.409 58.413-32.258 0-58.412-26.15-58.412-58.413 0-32.258 26.154-58.408 58.412-58.408 32.259 0 58.409 26.15 58.409 58.408z"/>
          <path fill="#fff" d="M221.65 245.556c0 16.062-13.017 29.083-29.079 29.083-16.058 0-29.079-13.021-29.079-29.083 0-16.058 13.021-29.079 29.079-29.079 16.062 0 29.079 13.021 29.079 29.079z"/>
        </g>
      </g>
      <g id="ob-eye-right">
        <path fill="#fff" d="M611.988 262.889c0 60.846-49.321 110.167-110.167 110.167-60.842 0-110.166-49.321-110.166-110.167 0-60.841 49.324-110.162 110.166-110.162 60.846 0 110.167 49.321 110.167 110.162z"/>
        <g id="ob-eyeball-right">
          <path fill="#404042" d="M560.234 262.889c0 32.263-26.154 58.413-58.413 58.413-32.258 0-58.408-26.15-58.408-58.413 0-32.258 26.15-58.408 58.408-58.408 32.259 0 58.413 26.15 58.413 58.408z"/>
          <path fill="#fff" d="M514.684 245.556c0 16.062-13.017 29.083-29.08 29.083-16.058 0-29.079-13.021-29.079-29.083 0-16.058 13.021-29.079 29.079-29.079 16.063 0 29.08 13.021 29.08 29.079z"/>
        </g>
      </g>
    </g>
    <path id="ob-beak" fill="#ffce40" d="M355.4 317.248l-34.804 35.858 34.804 50.621 34.804-50.621-34.804-35.858z"/>
    <g id="ob-feet" fill="#faaf41">
      <path id="ob-foot-left" d="M238.496 692.189c-18.3 0-34.183 24.4-34.183 47.134 0 22.737 19.766 18.3 23.091 11.091 0 0 .554 13.309 11.092 13.309s11.092-13.309 11.092-13.309c3.325 7.209 23.091 11.646 23.091-11.091 0-22.734-15.883-47.134-34.183-47.134z"/>
      <path id="ob-foot-right" d="M472.304 692.189c-18.3 0-34.183 24.4-34.183 47.134 0 22.737 19.767 18.3 23.092 11.091 0 0 .554 13.309 11.091 13.309 10.538 0 11.092-13.309 11.092-13.309 3.325 7.209 23.092 11.646 23.092-11.091 0-22.734-15.884-47.134-34.184-47.134z"/>
    </g>
    <g id="ob-wings" fill="#b1e3f9">
      <path id="ob-wing-left" d="M130.921 429.868C71.054 395.46 25.046 309.993 33.517 269.714c0 0-28.242 27.792-22.588 80.075 0 0-24.083 17.117-.75 40.563 0 0-16.191 20.008 9.221 45.175 0 0-11.295 16.541 19.763 44.3 0 0-3.984 35.562 32.596 49.483 36.575 13.921 63.396.092 83.162-14.017 19.763-14.104 16.938-61.895-24-85.425z"/>
      <path id="ob-wing-right" d="M579.492 429.868c59.863-34.408 105.875-119.875 97.404-160.154 0 0 28.234 27.792 22.588 80.075 0 0 24.079 17.117.745 40.563 0 0 16.192 20.008-9.216 45.175 0 0 11.291 16.541-19.763 44.3 0 0 3.979 35.562-32.596 49.483-36.579 13.921-63.4.092-83.162-14.017-19.762-14.104-16.942-61.895 24-85.425z"/>
    </g>
  </g>
</svg>
