<svg xmlns="http://www.w3.org/2000/svg" fill-rule="evenodd" stroke-linejoin="round" stroke-miterlimit="2" clip-rule="evenodd" viewBox="0 0 715 751">
  <g id="owl-green" fill-rule="nonzero">
    <path id="og-body" fill="#8bc540" d="M356.832 39.67c-150.833 0-313.491 123.558-280.962 365.412 26.525 197.175 115.341 320.721 280.962 320.721 165.617 0 254.438-123.546 280.958-320.721C670.324 163.228 507.661 39.67 356.832 39.67z"/>
    <g id="og-tummy">
      <path id="og-tummy-bg" fill="#d6df26" d="M356.832 403.441c-166.833 0-192.858 157.758-195.887 231.841 46.479 58.071 111.091 90.521 195.887 90.521 84.792 0 149.409-32.45 195.884-90.521-3.025-74.083-29.055-231.841-195.884-231.841z"/>
      <g id="og-tummy-feathers" fill="#e0e88b">
        <path id="og-tummy-feather" d="M264.995 489.207h27.504s-12.375 34.013-27.504 0z"/>
        <path id="og-tummy-feather1" d="M292.499 489.207h27.508s-12.379 34.013-27.508 0z"/>
        <path id="og-tummy-feather2" d="M320.007 489.207h27.509s-12.38 34.013-27.509 0z"/>
        <path id="og-tummy-feather3" d="M347.516 489.207h27.504s-12.375 34.013-27.504 0z"/>
        <path id="og-tummy-feather4" d="M375.02 489.207h27.508s-12.379 34.013-27.508 0z"/>
        <path id="og-tummy-feather5" d="M402.528 489.207h27.508s-12.379 34.013-27.508 0z"/>
        <path id="og-tummy-feather6" d="M430.036 489.207h27.504s-12.379 34.013-27.504 0z"/>
        <path id="og-tummy-feather7" d="M209.982 529.132h27.504s-12.379 34.013-27.504 0z"/>
        <path id="og-tummy-feather8" d="M237.486 529.132h27.509s-12.379 34.013-27.509 0z"/>
        <path id="og-tummy-feather9" d="M264.995 529.132h27.504s-12.375 34.013-27.504 0z"/>
        <path id="og-tummy-feather10" d="M292.499 529.132h27.508s-12.379 34.013-27.508 0z"/>
        <path id="og-tummy-feather11" d="M320.007 529.132h27.509s-12.38 34.013-27.509 0z"/>
        <path id="og-tummy-feather12" d="M347.516 529.132h27.504s-12.375 34.013-27.504 0z"/>
        <path id="og-tummy-feather13" d="M375.02 529.132h27.508s-12.379 34.013-27.508 0z"/>
        <path id="og-tummy-feather14" d="M402.528 529.132h27.508s-12.379 34.013-27.508 0z"/>
        <path id="og-tummy-feather15" d="M430.036 529.132h27.504s-12.379 34.013-27.504 0z"/>
        <path id="og-tummy-feather16" d="M457.54 529.132h27.509s-12.379 34.013-27.509 0z"/>
        <path id="og-tummy-feather17" d="M485.049 529.132h27.504s-12.375 34.013-27.504 0z"/>
        <path id="og-tummy-feather18" d="M209.982 572.016h27.504s-12.379 34.012-27.504 0z"/>
        <path id="og-tummy-feather19" d="M237.486 572.016h27.509s-12.379 34.012-27.509 0z"/>
        <path id="og-tummy-feather20" d="M264.995 572.016h27.504s-12.375 34.012-27.504 0z"/>
        <path id="og-tummy-feather21" d="M292.499 572.016h27.508s-12.379 34.012-27.508 0z"/>
        <path id="og-tummy-feather22" d="M320.007 572.016h27.509s-12.38 34.012-27.509 0z"/>
        <path id="og-tummy-feather23" d="M347.516 572.016h27.504s-12.375 34.012-27.504 0z"/>
        <path id="og-tummy-feather24" d="M375.02 572.016h27.508s-12.379 34.012-27.508 0z"/>
        <path id="og-tummy-feather25" d="M402.528 572.016h27.508s-12.379 34.012-27.508 0z"/>
        <path id="og-tummy-feather26" d="M430.036 572.016h27.504s-12.379 34.012-27.504 0z"/>
        <path id="og-tummy-feather27" d="M457.54 572.016h27.509s-12.379 34.012-27.509 0z"/>
        <path id="og-tummy-feather28" d="M485.049 572.016h27.504s-12.375 34.012-27.504 0z"/>
        <path id="og-tummy-feather29" d="M237.486 614.899h27.509s-12.379 34.012-27.509 0z"/>
        <path id="og-tummy-feather30" d="M264.995 614.899h27.504s-12.375 34.012-27.504 0z"/>
        <path id="og-tummy-feather31" d="M292.499 614.899h27.508s-12.379 34.012-27.508 0z"/>
        <path id="og-tummy-feather32" d="M320.007 614.899h27.509s-12.38 34.012-27.509 0z"/>
        <path id="og-tummy-feather33" d="M347.516 614.899h27.504s-12.375 34.012-27.504 0z"/>
        <path id="og-tummy-feather34" d="M375.02 614.899h27.508s-12.379 34.012-27.508 0z"/>
        <path id="og-tummy-feather35" d="M402.528 614.899h27.508s-12.379 34.012-27.508 0z"/>
        <path id="og-tummy-feather36" d="M430.036 614.899h27.504s-12.379 34.012-27.504 0z"/>
        <path id="og-tummy-feather37" d="M457.54 614.899h27.509s-12.379 34.012-27.509 0z"/>
        <path id="og-tummy-feather38" d="M264.995 657.782h27.504s-12.375 34.013-27.504 0z"/>
        <path id="og-tummy-feather39" d="M292.499 657.782h27.508s-12.379 34.013-27.508 0z"/>
        <path id="og-tummy-feather40" d="M320.007 657.782h27.509s-12.38 34.013-27.509 0z"/>
        <path id="og-tummy-feather41" d="M347.516 657.782h27.504s-12.375 34.013-27.504 0z"/>
        <path id="og-tummy-feather42" d="M375.02 657.782h27.508s-12.379 34.013-27.508 0z"/>
        <path id="og-tummy-feather43" d="M402.528 657.782h27.508s-12.379 34.013-27.508 0z"/>
        <path id="og-tummy-feather44" d="M430.036 657.782h27.504s-12.379 34.013-27.504 0z"/>
      </g>
    </g>
    <g id="og-head">
      <path fill="#8bc540" d="M641.586 2.403c-24.679-9.746-74.166 11.958-112.533 32.671-38.108 20.571-80.742 31.279-124.05 31.279h-96.721c-43.304 0-85.937-10.708-124.046-31.279C145.866 14.361 96.378-7.343 71.703 2.403 28.041 19.636 30.507 211.882 42.441 268.895c11.933 57.012 29.262 70.971 29.262 70.971l44.983 63.575h479.913l44.987-63.575s17.33-13.959 29.259-70.971c11.933-57.013 14.4-249.259-29.259-266.492z"/>
      <path fill="#d6df26" d="M601.528 27.591c-48.942 37.037-194.196 88.579-245.071 88.82-50.875-.241-196.133-51.783-245.075-88.82-49.054-37.121-55.521 161.716-50.3 222.058 5.225 60.346 260.946 90.217 260.946 90.217h68.854s255.725-29.871 260.946-90.217c5.221-60.342-1.246-259.179-50.3-222.058z"/>
      <path fill="#d6df26" d="M356.832 249.649c0 81.671-66.204 147.875-147.875 147.875-81.666 0-147.875-66.204-147.875-147.875 0-81.667 66.209-147.871 147.875-147.871 81.671 0 147.875 66.204 147.875 147.871zM652.578 249.649c0 81.671-66.204 147.875-147.871 147.875-81.67 0-147.875-66.204-147.875-147.875 0-81.667 66.205-147.871 147.875-147.871 81.667 0 147.871 66.204 147.871 147.871z"/>
    </g>
    <g id="og-eyes">
      <g id="og-eye-left">
        <path fill="#fff" d="M320.578 249.649c0 60.846-49.325 110.167-110.167 110.167-60.846 0-110.166-49.321-110.166-110.167 0-60.842 49.32-110.167 110.166-110.167 60.842 0 110.167 49.325 110.167 110.167z"/>
        <g id="og-eyeball-left">
          <path fill="#414042" d="M191.149 194.557c-22.779 7.967-39.15 29.592-39.15 55.092 0 32.262 26.154 58.412 58.412 58.412 31.646 0 57.355-25.187 58.317-56.604l-77.579-56.9z"/>
          <path fill="#fff" d="M215.611 212.311c0 11.638-9.433 21.075-21.071 21.075-11.637 0-21.07-9.437-21.07-21.075 0-11.637 9.433-21.07 21.07-21.07 11.638 0 21.071 9.433 21.071 21.07zM246.116 286.991c0 5.208-4.225 9.429-9.434 9.429a9.428 9.428 0 01-9.429-9.429c0-5.213 4.221-9.434 9.429-9.434a9.433 9.433 0 019.434 9.434z"/>
        </g>
      </g>
      <g id="og-eye-right">
        <path fill="#fff" d="M613.42 249.649c0 60.846-49.325 110.167-110.167 110.167s-110.167-49.321-110.167-110.167c0-60.842 49.325-110.167 110.167-110.167S613.42 188.807 613.42 249.649z"/>
        <g id="og-eyeball-right">
          <path fill="#414042" d="M522.47 194.557c22.779 7.967 39.146 29.592 39.146 55.092 0 32.262-26.15 58.412-58.409 58.412-31.65 0-57.354-25.187-58.321-56.604l77.584-56.9z"/>
          <path fill="#fff" d="M508.453 212.311c0 11.638-9.433 21.075-21.071 21.075-11.637 0-21.071-9.437-21.071-21.075 0-11.637 9.434-21.07 21.071-21.07 11.638 0 21.071 9.433 21.071 21.07zM538.957 286.991a9.428 9.428 0 01-9.429 9.429c-5.208 0-9.433-4.221-9.433-9.429a9.433 9.433 0 019.433-9.434c5.208 0 9.429 4.221 9.429 9.434z"/>
        </g>
      </g>
    </g>
    <path id="og-beak" fill="#ffce40" d="M356.832 304.007l-34.804 35.859 34.804 50.62 34.8-50.62-34.8-35.859z"/>
    <g id="og-feet" fill="#faaf41">
      <path id="og-foot-left" d="M239.928 678.949c-18.3 0-34.183 24.396-34.183 47.133 0 22.738 19.766 18.3 23.091 11.092 0 0 .555 13.308 11.092 13.308s11.092-13.308 11.092-13.308c3.325 7.208 23.091 11.646 23.091-11.092 0-22.737-15.883-47.133-34.183-47.133z"/>
      <path id="og-foot-right" d="M473.736 678.949c-18.299 0-34.183 24.396-34.183 47.133 0 22.738 19.763 18.3 23.092 11.092 0 0 .554 13.308 11.091 13.308 10.534 0 11.088-13.308 11.088-13.308 3.329 7.208 23.096 11.646 23.096-11.092 0-22.737-15.884-47.133-34.184-47.133z"/>
    </g>
    <g id="og-wings" fill="#d6df26">
      <path id="og-wing-left" d="M83.211 373.303c-53.858-7.25-92.129 44.829-81.404 118.167 10.721 73.337 134.05 95.662 134.05 95.662s-29.75-33.696-34.179-65.871c-4.429-32.17 15.575-49.275 21.308-78.35 8.95-45.387-12.812-65.975-39.775-69.608z"/>
      <path id="og-wing-right" d="M631.374 373.303c53.854-7.25 92.129 44.829 81.404 118.167-10.725 73.337-134.05 95.662-134.05 95.662s29.75-33.696 34.179-65.871c4.429-32.17-15.575-49.275-21.308-78.35-8.95-45.387 12.812-65.975 39.775-69.608z"/>
    </g>
  </g>
</svg>
