<?xml version="1.0" encoding="UTF-8"?>
<svg width="1199px" height="1070px" viewBox="0 0 1199 1070" version="1.1" xmlns="http://www.w3.org/2000/svg" xmlns:xlink="http://www.w3.org/1999/xlink">
    <!-- Generator: Sketch 51.3 (57544) - http://www.bohemiancoding.com/sketch -->
    <title>Combined Shape</title>
    <desc>Created with Sketch.</desc>
    <defs></defs>
    <g id="VegBox" stroke="none" stroke-width="1" fill="none" fill-rule="evenodd" fill-opacity="0.325574">
        <g id="Desktop-HD" transform="translate(-68.000000, 0.000000)" fill="#CEF19E" fill-rule="nonzero">
            <g id="hero" transform="translate(0.000000, -219.000000)">
                <g id="background">
                    <g id="carrot" transform="translate(68.000000, 0.000000)">
                        <path d="M1163.13248,361.31969 L1162.73833,361.31969 C1162.34418,360.92 1161.55588,359.72093 1161.16174,358.92155 L850.178501,40.7683721 C827.317883,16.7869767 794.209402,0 757.159435,0 C710.649901,0 669.658448,24.7807752 647.980276,65.1494574 C647.980276,65.1494574 634.579224,85.5336434 598.317554,144.288062 C592.011177,154.68 592.011177,168.269457 598.711703,178.661395 L704.343524,343.333643 C715.773833,358.52186 717.350427,375.308837 709.861604,382.902946 L709.467456,383.302636 C700.402038,392.495504 686.212689,389.297984 670.840894,377.706977 L543.530901,295.770543 C528.553254,286.177984 509.239974,290.974264 499.780408,305.762791 C413.461867,446.053953 315.318869,604.331163 219.146614,761.409302 C212.840237,771.40155 212.840237,784.191628 218.752465,794.583566 L274.327416,890.908837 C285.757725,906.097054 287.33432,922.884031 279.845496,930.47814 L279.451348,930.877829 C270.38593,940.070698 256.196581,936.873178 240.824786,925.282171 L175.396121,891.708217 C160.812623,884.114109 143.075937,889.310078 134.404668,903.299225 C64.6403682,1016.41147 24.0430638,1081.96062 19.7074293,1089.15504 C7.88297173,1109.53922 0,1133.92031 0,1160.29984 C0,1231.44465 55.9690993,1289 125.733399,1289 C156.476989,1289 182.490796,1275.41054 206.928008,1258.62357 L618.813281,948.464186 C632.214333,938.471938 635.367521,919.686512 626.696252,905.697364 L545.895792,777.396899 C534.465483,762.208682 532.888889,745.421705 540.377712,737.827597 L540.771861,737.427907 C549.837278,728.235039 564.026627,731.432558 579.398422,743.023566 L726.809993,845.344186 C737.846154,852.938295 752.429652,852.938295 763.465812,844.544806 C972.364563,688.266047 1147.76068,555.968682 1147.76068,555.968682 C1178.89842,531.987287 1199,494.416434 1199,452.049302 C1199,417.276279 1186.78139,384.901395 1163.13248,361.31969 Z" id="Combined-Shape"></path>
                    </g>
                </g>
            </g>
        </g>
    </g>
</svg>