<svg xmlns="http://www.w3.org/2000/svg" fill-rule="evenodd" stroke-linejoin="round" stroke-miterlimit="2" clip-rule="evenodd" viewBox="0 0 731 725">
  <g id="owl-turquoise" fill-rule="nonzero">
    <path id="ot-body" fill="#85cdb7" d="M326.893 13.6C176.059 13.6 13.397 137.158 45.93 379.017c26.521 197.175 115.342 320.721 280.963 320.721 165.616 0 254.437-123.546 280.958-320.721C640.384 137.158 477.722 13.6 326.893 13.6z"/>
    <g id="ot-tummy">
      <path id="ot-tummy-bg" fill="#bce1ca" d="M326.893 377.371c-166.834 0-192.863 157.762-195.888 231.846 46.479 58.066 111.092 90.521 195.888 90.521 84.791 0 149.404-32.455 195.883-90.521-3.025-74.084-29.054-231.846-195.883-231.846z"/>
      <g id="ot-tummy-feathers" fill="#64c5b8">
        <path id="ot-belly-feather" d="M235.055 463.138h27.504s-12.379 34.012-27.504 0z"/>
        <path id="ot-belly-feather1" d="M262.559 463.138h27.509s-12.38 34.012-27.509 0z"/>
        <path id="ot-belly-feather2" d="M290.068 463.138h27.504s-12.375 34.012-27.504 0z"/>
        <path id="ot-belly-feather3" d="M317.572 463.138h27.508s-12.379 34.012-27.508 0z"/>
        <path id="ot-belly-feather4" d="M345.08 463.138h27.508s-12.379 34.012-27.508 0z"/>
        <path id="ot-belly-feather5" d="M372.588 463.138h27.505s-12.375 34.012-27.505 0z"/>
        <path id="ot-belly-feather6" d="M400.093 463.138h27.508s-12.379 34.012-27.508 0z"/>
        <path id="ot-belly-feather7" d="M180.038 503.067h27.509s-12.379 34.008-27.509 0z"/>
        <path id="ot-belly-feather8" d="M207.547 503.067h27.508s-12.379 34.008-27.508 0z"/>
        <path id="ot-belly-feather9" d="M235.055 503.067h27.504s-12.379 34.008-27.504 0z"/>
        <path id="ot-belly-feather10" d="M262.559 503.067h27.509s-12.38 34.008-27.509 0z"/>
        <path id="ot-belly-feather11" d="M290.068 503.067h27.504s-12.375 34.008-27.504 0z"/>
        <path id="ot-belly-feather12" d="M317.572 503.067h27.508s-12.379 34.008-27.508 0z"/>
        <path id="ot-belly-feather13" d="M345.08 503.067h27.508s-12.379 34.008-27.508 0z"/>
        <path id="ot-belly-feather14" d="M372.588 503.067h27.505s-12.375 34.008-27.505 0z"/>
        <path id="ot-belly-feather15" d="M400.093 503.067h27.508s-12.379 34.008-27.508 0z"/>
        <path id="ot-belly-feather16" d="M427.601 503.067h27.508s-12.379 34.008-27.508 0z"/>
        <path id="ot-belly-feather17" d="M455.109 503.067h27.504s-12.379 34.008-27.504 0z"/>
        <path id="ot-belly-feather18" d="M180.038 545.95h27.509s-12.379 34.008-27.509 0z"/>
        <path id="ot-belly-feather19" d="M207.547 545.95h27.508s-12.379 34.008-27.508 0z"/>
        <path id="ot-belly-feather20" d="M235.055 545.95h27.504s-12.379 34.008-27.504 0z"/>
        <path id="ot-belly-feather21" d="M262.559 545.95h27.509s-12.38 34.008-27.509 0z"/>
        <path id="ot-belly-feather22" d="M290.068 545.95h27.504s-12.375 34.008-27.504 0z"/>
        <path id="ot-belly-feather23" d="M317.572 545.95h27.508s-12.379 34.008-27.508 0z"/>
        <path id="ot-belly-feather24" d="M345.08 545.95h27.508s-12.379 34.008-27.508 0z"/>
        <path id="ot-belly-feather25" d="M372.588 545.95h27.505s-12.375 34.008-27.505 0z"/>
        <path id="ot-belly-feather26" d="M400.093 545.95h27.508s-12.379 34.008-27.508 0z"/>
        <path id="ot-belly-feather27" d="M427.601 545.95h27.508s-12.379 34.008-27.508 0z"/>
        <path id="ot-belly-feather28" d="M455.109 545.95h27.504s-12.379 34.008-27.504 0z"/>
        <path id="ot-belly-feather29" d="M207.547 588.833h27.508s-12.379 34.009-27.508 0z"/>
        <path id="ot-belly-feather30" d="M235.055 588.833h27.504s-12.379 34.009-27.504 0z"/>
        <path id="ot-belly-feather31" d="M262.559 588.833h27.509s-12.38 34.009-27.509 0z"/>
        <path id="ot-belly-feather32" d="M290.068 588.833h27.504s-12.375 34.009-27.504 0z"/>
        <path id="ot-belly-feather33" d="M317.572 588.833h27.508s-12.379 34.009-27.508 0z"/>
        <path id="ot-belly-feather34" d="M345.08 588.833h27.508s-12.379 34.009-27.508 0z"/>
        <path id="ot-belly-feather35" d="M372.588 588.833h27.505s-12.375 34.009-27.505 0z"/>
        <path id="ot-belly-feather36" d="M400.093 588.833h27.508s-12.379 34.009-27.508 0z"/>
        <path id="ot-belly-feather37" d="M427.601 588.833h27.508s-12.379 34.009-27.508 0z"/>
        <path id="ot-belly-feather38" d="M235.055 631.717h27.504s-12.379 34.008-27.504 0z"/>
        <path id="ot-belly-feather39" d="M262.559 631.717h27.509s-12.38 34.008-27.509 0z"/>
        <path id="ot-belly-feather40" d="M290.068 631.717h27.504s-12.375 34.008-27.504 0z"/>
        <path id="ot-belly-feather41" d="M317.572 631.717h27.508s-12.379 34.008-27.508 0z"/>
        <path id="ot-belly-feather42" d="M345.08 631.717h27.508s-12.379 34.008-27.508 0z"/>
        <path id="ot-belly-feather43" d="M372.588 631.717h27.505s-12.375 34.008-27.505 0z"/>
        <path id="ot-belly-feather44" d="M400.093 631.717h27.508s-12.379 34.008-27.508 0z"/>
      </g>
    </g>
    <g id="ot-head">
      <g id="ot-ears" fill="#64c5b8">
        <path id="ot-ear-left" d="M237.668 28.796S149.747 63.963 60.322 0c0 0-10.084 17.188 13.254 38.442 0 0 1.554 20.562 12.442 23.042 0 0-1.555 21.666 14 23.795 0 0-6.275 15.742 14.754 29.192s118.979-41.95 122.896-85.675z"/>
        <path id="ot-ear-right" d="M416.118 28.796S504.038 63.963 593.459 0c0 0 10.084 17.188-13.25 38.442 0 0-1.558 20.562-12.446 23.042 0 0 1.555 21.666-14 23.795 0 0 6.275 15.742-14.754 29.192-21.025 13.45-118.975-41.95-122.891-85.675z"/>
      </g>
      <path id="ot-head-left" fill="#3dbfb7" d="M326.893 223.583c0 81.667-66.209 147.875-147.875 147.875-81.671 0-147.875-66.208-147.875-147.875 0-81.67 66.204-147.874 147.875-147.874 81.666 0 147.875 66.204 147.875 147.874z"/>
      <path id="ot-head-right" fill="#3dbfb7" d="M622.638 223.583c0 81.667-66.204 147.875-147.875 147.875-81.666 0-147.87-66.208-147.87-147.875 0-81.67 66.204-147.874 147.87-147.874 81.671 0 147.875 66.204 147.875 147.874z"/>
    </g>
    <g id="ot-eyes">
      <g id="ot-eye-left">
        <path fill="#fff" d="M290.634 223.583c0 60.842-49.321 110.167-110.166 110.167-60.842 0-110.163-49.325-110.163-110.167 0-60.841 49.321-110.166 110.163-110.166 60.845 0 110.166 49.325 110.166 110.166z"/>
        <g id="ot-eyeball-left">
          <path fill="#404042" d="M238.88 223.583c0 32.259-26.15 58.409-58.412 58.409-32.259 0-58.409-26.15-58.409-58.409 0-32.258 26.15-58.412 58.409-58.412 32.262 0 58.412 26.154 58.412 58.412z"/>
          <path fill="#fff" d="M185.672 186.246c0 11.637-9.434 21.071-21.071 21.071-11.642 0-21.075-9.434-21.075-21.071 0-11.638 9.433-21.075 21.075-21.075 11.637 0 21.071 9.437 21.071 21.075zM216.176 260.921c0 5.208-4.225 9.433-9.433 9.433-5.209 0-9.43-4.225-9.43-9.433a9.429 9.429 0 019.43-9.429c5.208 0 9.433 4.221 9.433 9.429z"/>
        </g>
      </g>
      <g id="ot-eye-right">
        <path fill="#fff" d="M583.48 223.583c0 60.842-49.325 110.167-110.167 110.167-60.845 0-110.166-49.325-110.166-110.167 0-60.841 49.321-110.166 110.166-110.166 60.842 0 110.167 49.325 110.167 110.166z"/>
        <g id="ot-eyeball-right">
          <path fill="#404042" d="M531.722 223.583c0 32.259-26.15 58.409-58.409 58.409-32.258 0-58.412-26.15-58.412-58.409 0-32.258 26.154-58.412 58.412-58.412 32.259 0 58.409 26.154 58.409 58.412z"/>
          <path fill="#fff" d="M478.513 186.246c0 11.637-9.433 21.071-21.07 21.071-11.638 0-21.075-9.434-21.075-21.071 0-11.638 9.437-21.075 21.075-21.075 11.637 0 21.07 9.437 21.07 21.075zM509.018 260.921c0 5.208-4.225 9.433-9.434 9.433-5.208 0-9.429-4.225-9.429-9.433a9.428 9.428 0 019.429-9.429c5.209 0 9.434 4.221 9.434 9.429z"/>
        </g>
      </g>
    </g>
    <path id="ot-beak" fill="#ffce40" d="M326.893 277.942l-34.805 35.854 34.805 50.625 34.8-50.625-34.8-35.854z"/>
    <g id="ot-feet" fill="#faaf41">
      <path id="ot-foot-left" d="M209.988 652.879c-18.3 0-34.183 24.4-34.183 47.134 0 22.737 19.763 18.3 23.092 11.091 0 0 .554 13.309 11.091 13.309 10.534 0 11.088-13.309 11.088-13.309 3.329 7.209 23.096 11.646 23.096-11.091 0-22.734-15.884-47.134-34.184-47.134z"/>
      <path id="ot-foot-right" d="M443.793 652.879c-18.296 0-34.184 24.4-34.184 47.134 0 22.737 19.767 18.3 23.096 11.091 0 0 .554 13.309 11.088 13.309 10.537 0 11.091-13.309 11.091-13.309 3.329 7.209 23.096 11.646 23.096-11.091 0-22.734-15.887-47.134-34.187-47.134z"/>
    </g>
    <g id="ot-wings" fill="#3dbfb7">
      <path id="ot-wing-left" d="M41.205 356.688C-29.966 364.713.463 513.896 61.376 587.325c0 0 117.642-246.183-20.171-230.637z"/>
      <path id="ot-wing-right" d="M564.784 433.342c-48.596-52.617 71.988-145.58 166.088-161.292 0 0-71.996 263.175-166.088 161.292z"/>
    </g>
  </g>
</svg>
