<svg xmlns="http://www.w3.org/2000/svg" fill-rule="evenodd" stroke-linejoin="round" stroke-miterlimit="2" clip-rule="evenodd" viewBox="0 0 907 729">
  <g id="owl-orange" fill-rule="nonzero">
    <path id="oo-body" fill="#f69220" d="M452.539 49.425c-150.833 0-313.496 117.858-280.962 348.559 26.525 188.079 115.341 305.929 280.962 305.929 165.617 0 254.438-117.85 280.959-305.929 32.533-230.701-130.13-348.559-280.959-348.559z"/>
    <g id="oo-tummy">
      <path id="oo-tummy-bg" fill="#ffce40" d="M452.539 703.913c84.588 0 149.096-30.805 195.546-85.942-4.366-80.396-33.696-236.425-195.546-236.425-161.854 0-191.179 156.029-195.55 236.425 46.454 55.137 110.963 85.942 195.55 85.942z"/>
      <g id="oo-tummy-feathers" fill="#f4f29f">
        <path id="oo-tummy-feather" d="M360.702 467.313h27.504s-12.375 34.012-27.504 0z"/>
        <path id="oo-tummy-feather1" d="M388.206 467.313h27.508s-12.379 34.012-27.508 0z"/>
        <path id="oo-tummy-feather2" d="M415.714 467.313h27.509s-12.38 34.012-27.509 0z"/>
        <path id="oo-tummy-feather3" d="M443.223 467.313h27.504s-12.375 34.012-27.504 0z"/>
        <path id="oo-tummy-feather4" d="M470.727 467.313h27.508s-12.379 34.012-27.508 0z"/>
        <path id="oo-tummy-feather5" d="M498.235 467.313h27.508s-12.379 34.012-27.508 0z"/>
        <path id="oo-tummy-feather6" d="M525.743 467.313h27.505s-12.38 34.012-27.505 0z"/>
        <path id="oo-tummy-feather7" d="M305.689 507.242h27.505s-12.38 34.008-27.505 0z"/>
        <path id="oo-tummy-feather8" d="M333.194 507.242h27.508s-12.379 34.008-27.508 0z"/>
        <path id="oo-tummy-feather9" d="M360.702 507.242h27.504s-12.375 34.008-27.504 0z"/>
        <path id="oo-tummy-feather10" d="M388.206 507.242h27.508s-12.379 34.008-27.508 0z"/>
        <path id="oo-tummy-feather11" d="M415.714 507.242h27.509s-12.38 34.008-27.509 0z"/>
        <path id="oo-tummy-feather12" d="M443.223 507.242h27.504s-12.375 34.008-27.504 0z"/>
        <path id="oo-tummy-feather13" d="M470.727 507.242h27.508s-12.379 34.008-27.508 0z"/>
        <path id="oo-tummy-feather14" d="M498.235 507.242h27.508s-12.379 34.008-27.508 0z"/>
        <path id="oo-tummy-feather15" d="M525.743 507.242h27.505s-12.38 34.008-27.505 0z"/>
        <path id="oo-tummy-feather16" d="M553.248 507.242h27.508s-12.379 34.008-27.508 0z"/>
        <path id="oo-tummy-feather17" d="M580.756 507.242h27.504s-12.375 34.008-27.504 0z"/>
        <path id="oo-tummy-feather18" d="M305.689 550.125h27.505s-12.38 34.008-27.505 0z"/>
        <path id="oo-tummy-feather19" d="M333.194 550.125h27.508s-12.379 34.008-27.508 0z"/>
        <path id="oo-tummy-feather20" d="M360.702 550.125h27.504s-12.375 34.008-27.504 0z"/>
        <path id="oo-tummy-feather21" d="M388.206 550.125h27.508s-12.379 34.008-27.508 0z"/>
        <path id="oo-tummy-feather22" d="M415.714 550.125h27.509s-12.38 34.008-27.509 0z"/>
        <path id="oo-tummy-feather23" d="M443.223 550.125h27.504s-12.375 34.008-27.504 0z"/>
        <path id="oo-tummy-feather24" d="M470.727 550.125h27.508s-12.379 34.008-27.508 0z"/>
        <path id="oo-tummy-feather25" d="M498.235 550.125h27.508s-12.379 34.008-27.508 0z"/>
        <path id="oo-tummy-feather26" d="M525.743 550.125h27.505s-12.38 34.008-27.505 0z"/>
        <path id="oo-tummy-feather27" d="M553.248 550.125h27.508s-12.379 34.008-27.508 0z"/>
        <path id="oo-tummy-feather28" d="M580.756 550.125h27.504s-12.375 34.008-27.504 0z"/>
        <path id="oo-tummy-feather29" d="M333.194 593.008h27.508s-12.379 34.009-27.508 0z"/>
        <path id="oo-tummy-feather30" d="M360.702 593.008h27.504s-12.375 34.009-27.504 0z"/>
        <path id="oo-tummy-feather31" d="M388.206 593.008h27.508s-12.379 34.009-27.508 0z"/>
        <path id="oo-tummy-feather32" d="M415.714 593.008h27.509s-12.38 34.009-27.509 0z"/>
        <path id="oo-tummy-feather33" d="M443.223 593.008h27.504s-12.375 34.009-27.504 0z"/>
        <path id="oo-tummy-feather34" d="M470.727 593.008h27.508s-12.379 34.009-27.508 0z"/>
        <path id="oo-tummy-feather35" d="M498.235 593.008h27.508s-12.379 34.009-27.508 0z"/>
        <path id="oo-tummy-feather36" d="M525.743 593.008h27.505s-12.38 34.009-27.505 0z"/>
        <path id="oo-tummy-feather37" d="M553.248 593.008h27.508s-12.379 34.009-27.508 0z"/>
        <path id="oo-tummy-feather38" d="M360.702 635.892h27.504s-12.375 34.008-27.504 0z"/>
        <path id="oo-tummy-feather39" d="M388.206 635.892h27.508s-12.379 34.008-27.508 0z"/>
        <path id="oo-tummy-feather40" d="M415.714 635.892h27.509s-12.38 34.008-27.509 0z"/>
        <path id="oo-tummy-feather41" d="M443.223 635.892h27.504s-12.375 34.008-27.504 0z"/>
        <path id="oo-tummy-feather42" d="M470.727 635.892h27.508s-12.379 34.008-27.508 0z"/>
        <path id="oo-tummy-feather43" d="M498.235 635.892h27.508s-12.379 34.008-27.508 0z"/>
        <path id="oo-tummy-feather44" d="M525.743 635.892h27.505s-12.38 34.008-27.505 0z"/>
      </g>
    </g>
    <path id="oo-head" fill="#f15a29" d="M748.285 0c-71.196 67.25-231.092 79.884-231.092 79.884H389.41S229.51 67.25 158.314 0c0 0-13.75 130.729-.383 209.679-.725 5.929-1.142 11.954-1.142 18.08 0 81.666 66.209 147.874 147.875 147.874 35.884 0 68.771-12.787 94.384-34.045 48.25-38.051 92.162-11.325 105.737-1.079a149.17 149.17 0 004.325 3.525c25.146 19.77 56.833 31.599 91.304 31.599 81.667 0 147.871-66.208 147.871-147.874 0-5.496-.321-10.917-.908-16.259l.908.521c14.042-78.679 0-212.021 0-212.021z"/>
    <g id="oo-eyes">
      <g id="oo-eye-left">
        <path fill="#fff" d="M401.96 227.759c0 55.508-45 100.508-100.508 100.508-55.513 0-100.513-45-100.513-100.508 0-55.513 45-100.513 100.513-100.513 55.508 0 100.508 45 100.508 100.513z"/>
        <g id="oo-eyeball-left">
          <path fill="#404042" d="M383.698 227.759c0 26.545-21.517 48.062-48.063 48.062-26.546 0-48.062-21.517-48.062-48.062 0-26.546 21.516-48.063 48.062-48.063s48.063 21.517 48.063 48.063z"/>
          <path fill="#fff" d="M335.685 195.938c0 8.97-7.275 16.241-16.246 16.241-8.97 0-16.241-7.271-16.241-16.241 0-8.971 7.271-16.242 16.241-16.242 8.971 0 16.246 7.271 16.246 16.242zM363.76 261.9a8.403 8.403 0 01-8.404 8.404 8.404 8.404 0 01-8.408-8.404 8.408 8.408 0 018.408-8.408c4.642 0 8.404 3.766 8.404 8.408z"/>
        </g>
      </g>
      <g id="oo-eye-right">
        <path fill="#fff" d="M704.135 227.759c0 55.508-45 100.508-100.508 100.508-55.513 0-100.513-45-100.513-100.508 0-55.513 45-100.513 100.513-100.513 55.508 0 100.508 45 100.508 100.513z"/>
        <g id="oo-eyeball-right">
          <path fill="#404042" d="M617.506 227.759c0 26.545-21.521 48.062-48.062 48.062-26.546 0-48.063-21.517-48.063-48.062 0-26.546 21.517-48.063 48.063-48.063 26.541 0 48.062 21.517 48.062 48.063z"/>
          <path fill="#fff" d="M594.51 261.9c0 4.642-3.766 8.404-8.408 8.404a8.403 8.403 0 01-8.404-8.404c0-4.642 3.762-8.408 8.404-8.408a8.41 8.41 0 018.408 8.408zM569.489 195.938c0 8.97-7.27 16.241-16.241 16.241s-16.242-7.271-16.242-16.241c0-8.971 7.271-16.242 16.242-16.242s16.241 7.271 16.241 16.242z"/>
        </g>
      </g>
    </g>
    <path id="oo-beak" fill="#ffce40" d="M452.539 282.117l-34.804 35.854 34.804 50.625 34.8-50.625-34.8-35.854z"/>
    <g id="oo-feet" fill="#f69220">
      <path id="oo-foot-left" d="M335.635 657.054c-18.3 0-34.183 24.4-34.183 47.134 0 22.737 19.766 18.3 23.092 11.091 0 0 .554 13.309 11.091 13.309 10.538 0 11.092-13.309 11.092-13.309 3.325 7.209 23.091 11.646 23.091-11.091 0-22.734-15.883-47.134-34.183-47.134z"/>
      <path id="oo-foot-right" d="M569.444 657.054c-18.301 0-34.184 24.4-34.184 47.134 0 22.737 19.763 18.3 23.092 11.091 0 0 .554 13.309 11.092 13.309 10.533 0 11.087-13.309 11.087-13.309 3.329 7.209 23.096 11.646 23.096-11.091 0-22.734-15.884-47.134-34.183-47.134z"/>
    </g>
    <g id="oo-wings" fill="#f15a29">
      <path id="oo-wing-right" d="M730.898 342.967c-2.784-36.038 168.383-143.825 172.358-142.496 3.979 1.325 6.629 116.204-5.304 150.246-11.929 34.046-64.963 30.729-64.963 30.729s31.817 3.317 35.796 39.112c3.979 35.796-39.104 88.842-50.046 94.138-10.941 5.3-45.412-25.333-45.412-25.333s25.187 34.987-2.654 58c-27.842 23.016-67.617 15.3-84.854-65.034-17.234-80.333 45.079-139.362 45.079-139.362z"/>
      <path id="oo-wing-left" d="M175.714 342.967C178.498 306.929 7.335 199.142 3.356 200.471c-3.975 1.325-6.629 116.204 5.304 150.246 11.933 34.046 64.967 30.729 64.967 30.729s-31.821 3.317-35.8 39.112c-3.975 35.796 39.104 88.842 50.046 94.138 10.946 5.3 45.416-25.333 45.416-25.333s-25.191 34.987 2.65 58c27.846 23.016 67.621 15.3 84.854-65.034 17.238-80.333-45.079-139.362-45.079-139.362z"/>
    </g>
  </g>
</svg>
