<?xml version="1.0" encoding="UTF-8"?>
<svg width="768px" height="1018px" viewBox="0 0 768 1018" version="1.1" xmlns="http://www.w3.org/2000/svg" xmlns:xlink="http://www.w3.org/1999/xlink">
    <!-- Generator: Sketch 51.3 (57544) - http://www.bohemiancoding.com/sketch -->
    <title>Shape</title>
    <desc>Created with Sketch.</desc>
    <defs></defs>
    <g id="VegBox" stroke="none" stroke-width="1" fill="none" fill-rule="evenodd" fill-opacity="0.325574">
        <g id="Tablet" fill="#CEF19E" fill-rule="nonzero">
            <g id="hero" transform="translate(0.000000, -78.000000)">
                <g id="background">
                    <g id="carrot">
                        <path d="M988.691709,307.543375 L988.356673,307.543375 C988.021637,307.20367 987.351565,306.184553 987.016529,305.505142 L722.672998,35.0995093 C703.240901,14.7171752 675.097863,0.449541284 643.604464,0.449541284 C604.070197,0.449541284 569.226437,21.5112865 550.799448,55.821549 C550.799448,55.821549 539.408218,73.146533 508.584892,123.083252 C503.224313,131.915596 503.224313,143.465586 508.919928,152.29793 L598.709619,292.256625 C608.425667,305.165436 609.765812,319.43307 603.400125,325.887476 L603.065089,326.227182 C595.359257,334.04041 583.297955,331.322765 570.231545,321.471304 L462.014865,251.831662 C449.283491,243.678728 432.866719,247.755195 424.825851,260.324301 C351.452932,379.560956 268.028928,514.084361 186.280105,647.588649 C180.919527,656.081289 180.919527,666.951867 185.945069,675.784212 L233.185168,757.653254 C242.901216,770.562065 244.241361,784.829699 237.875674,791.284105 L237.540638,791.623811 C229.834806,799.437039 217.773504,796.719394 204.707094,786.867933 L149.091091,758.332665 C136.694753,751.878259 121.618126,756.294431 114.247331,768.184126 C54.9459303,864.320802 20.4372058,920.032515 16.751808,926.147216 C6.70072321,943.4722 0,964.194239 0,986.614807 C0,1047.0824 47.5751348,1096 106.876535,1096 C133.009356,1096 155.121742,1084.45001 175.893984,1070.18238 L526.006772,806.570856 C537.398001,798.078216 540.078291,782.112055 532.707495,770.22236 L464.025082,661.176872 C454.309034,648.268061 452.968889,634.000427 459.334576,627.546021 L459.669612,627.206315 C467.375444,619.393087 479.436746,622.110732 492.503156,631.962193 L617.80668,718.926819 C627.187692,725.381225 639.58403,725.381225 648.965043,718.247408 C826.534208,585.42253 975.625299,472.979987 975.625299,472.979987 C1002.09316,452.597653 1019.18,420.66533 1019.18,384.656539 C1019.18,355.102155 1008.79388,327.586004 988.691709,307.543375 Z" id="Shape"></path>
                    </g>
                </g>
            </g>
        </g>
    </g>
</svg>