<?xml version="1.0" encoding="UTF-8"?>
<svg width="320px" height="523px" viewBox="0 0 320 523" version="1.1" xmlns="http://www.w3.org/2000/svg" xmlns:xlink="http://www.w3.org/1999/xlink">
    <!-- Generator: Sketch 51.3 (57544) - http://www.bohemiancoding.com/sketch -->
    <title>Shape</title>
    <desc>Created with Sketch.</desc>
    <defs></defs>
    <g id="VegBox" stroke="none" stroke-width="1" fill="none" fill-rule="evenodd" fill-opacity="0.325574">
        <g id="Mobile" fill="#CEF19E" fill-rule="nonzero">
            <g id="hero" transform="translate(-63.000000, -35.000000)">
                <g id="background">
                    <g id="carrot">
                        <path d="M504.444444,156.413023 L504.273504,156.413023 C504.102564,156.24 503.760684,155.72093 503.589744,155.374884 L368.717949,17.6483721 C358.803419,7.26697674 344.444444,0 328.376068,0 C308.205128,0 290.42735,10.7274419 281.025641,28.2027907 C281.025641,28.2027907 275.213675,37.0269767 259.487179,62.4613953 C256.752137,66.96 256.752137,72.8427907 259.65812,77.3413953 L305.470085,148.626977 C310.42735,155.20186 311.111111,162.468837 307.863248,165.756279 L307.692308,165.929302 C303.760684,169.908837 297.606838,168.524651 290.940171,163.506977 L235.726496,128.037209 C229.230769,123.884651 220.854701,125.96093 216.752137,132.362791 C179.316239,193.093953 136.752137,261.611163 95.042735,329.609302 C92.3076923,333.934884 92.3076923,339.471628 94.8717949,343.970233 L118.974359,385.668837 C123.931624,392.243721 124.615385,399.510698 121.367521,402.79814 L121.196581,402.971163 C117.264957,406.950698 111.111111,405.566512 104.444444,400.548837 L76.0683761,386.014884 C69.7435897,382.727442 62.0512821,384.976744 58.2905983,391.032558 C28.034188,439.99814 10.4273504,468.373953 8.54700855,471.488372 C3.41880342,480.312558 0,490.866977 0,502.286512 C0,533.084651 24.2735043,558 54.5299145,558 C67.8632479,558 79.1452991,552.117209 89.7435897,544.850233 L268.376068,410.584186 C274.188034,406.258605 275.555556,398.126512 271.794872,392.070698 L236.752137,336.530233 C231.794872,329.955349 231.111111,322.688372 234.358974,319.40093 L234.529915,319.227907 C238.461538,315.248372 244.615385,316.632558 251.282051,321.650233 L315.213675,365.944186 C320,369.231628 326.324786,369.231628 331.111111,365.59814 C421.709402,297.946047 497.777778,240.675349 497.777778,240.675349 C511.282051,230.293953 520,214.029767 520,195.689302 C520,180.636279 514.700855,166.621395 504.444444,156.413023 Z" id="Shape"></path>
                    </g>
                </g>
            </g>
        </g>
    </g>
</svg>