<?xml version="1.0" encoding="UTF-8"?>
<svg width="53px" height="44px" viewBox="0 0 53 44" version="1.1" xmlns="http://www.w3.org/2000/svg" xmlns:xlink="http://www.w3.org/1999/xlink">
    <!-- Generator: Sketch 51.3 (57544) - http://www.bohemiancoding.com/sketch -->
    <title>logo-text-white</title>
    <desc>Created with Sketch.</desc>
    <defs></defs>
    <g id="logo-text-white" stroke="none" stroke-width="1" fill="none" fill-rule="evenodd">
        <path d="M7.95898438,30 L10.0986328,30 L6.70117188,39.9941406 L4.390625,39.9941406 L1,30 L3.13964844,30 L5.01953125,35.9472656 C5.12434948,36.2981788 5.23258408,36.7071917 5.34423828,37.1743164 C5.45589249,37.6414411 5.52539049,37.9661449 5.55273438,38.1484375 C5.60286483,37.7291646 5.77376156,36.9954479 6.06542969,35.9472656 L7.95898438,30 Z M14.0771484,33.6914062 C13.6350889,33.6914062 13.2887382,33.8315416 13.0380859,34.1118164 C12.7874336,34.3920912 12.6438804,34.789711 12.6074219,35.3046875 L15.5332031,35.3046875 C15.5240885,34.789711 15.3896497,34.3920912 15.1298828,34.1118164 C14.8701159,33.8315416 14.5192079,33.6914062 14.0771484,33.6914062 Z M14.3710938,40.1308594 C13.1406188,40.1308594 12.1790399,39.7913445 11.4863281,39.1123047 C10.7936163,38.4332648 10.4472656,37.4716859 10.4472656,36.2275391 C10.4472656,34.9469337 10.7674122,33.956872 11.4077148,33.2573242 C12.0480175,32.5577765 12.9332626,32.2080078 14.0634766,32.2080078 C15.1435601,32.2080078 15.984372,32.5156219 16.5859375,33.1308594 C17.187503,33.7460968 17.4882812,34.5960232 17.4882812,35.6806641 L17.4882812,36.6923828 L12.5595703,36.6923828 C12.5823569,37.2848337 12.7578109,37.7473942 13.0859375,38.0800781 C13.4140641,38.4127621 13.874346,38.5791016 14.4667969,38.5791016 C14.9270856,38.5791016 15.3623026,38.5312505 15.7724609,38.4355469 C16.1826192,38.3398433 16.6110004,38.1871755 17.0576172,37.9775391 L17.0576172,39.5908203 C16.693032,39.7731129 16.3033875,39.908691 15.8886719,39.9975586 C15.4739563,40.0864262 14.9681019,40.1308594 14.3710938,40.1308594 Z M25.8349609,32.3515625 L25.8349609,33.4111328 L24.6386719,33.71875 C24.857423,34.0605486 24.9667969,34.4433573 24.9667969,34.8671875 C24.9667969,35.6875041 24.6808297,36.3266579 24.1088867,36.784668 C23.5369438,37.2426781 22.7428436,37.4716797 21.7265625,37.4716797 L21.3505859,37.4511719 L21.0429688,37.4169922 C20.828775,37.5810555 20.7216797,37.7633454 20.7216797,37.9638672 C20.7216797,38.2646499 21.1044884,38.4150391 21.8701172,38.4150391 L23.1689453,38.4150391 C24.0074912,38.4150391 24.6466449,38.5950503 25.0864258,38.9550781 C25.5262066,39.315106 25.7460938,39.8437465 25.7460938,40.5410156 C25.7460938,41.4342493 25.3735389,42.1269507 24.628418,42.6191406 C23.8832971,43.1113306 22.8134835,43.3574219 21.4189453,43.3574219 C20.3525337,43.3574219 19.537926,43.1717141 18.9750977,42.800293 C18.4122693,42.4288718 18.1308594,41.9082065 18.1308594,41.2382812 C18.1308594,40.7779925 18.2744126,40.3929052 18.5615234,40.0830078 C18.8486342,39.7731104 19.2701795,39.552084 19.8261719,39.4199219 C19.6119781,39.3287756 19.425131,39.1795258 19.265625,38.972168 C19.106119,38.7648102 19.0263672,38.544923 19.0263672,38.3125 C19.0263672,38.0208319 19.1106762,37.7781585 19.2792969,37.5844727 C19.4479175,37.3907868 19.6917302,37.2005218 20.0107422,37.0136719 C19.6096985,36.8404939 19.2918306,36.5625019 19.0571289,36.1796875 C18.8224272,35.7968731 18.7050781,35.3457057 18.7050781,34.8261719 C18.7050781,33.9921833 18.9762343,33.347333 19.5185547,32.8916016 C20.0608751,32.4358701 20.8356069,32.2080078 21.8427734,32.2080078 C22.0569672,32.2080078 22.3110337,32.2273761 22.6049805,32.2661133 C22.8989273,32.3048505 23.0869137,32.3333332 23.1689453,32.3515625 L25.8349609,32.3515625 Z M19.9355469,41.0742188 C19.9355469,41.3613296 20.0734036,41.5869132 20.3491211,41.7509766 C20.6248386,41.9150399 21.0110652,41.9970703 21.5078125,41.9970703 C22.2552121,41.9970703 22.8408182,41.8945323 23.2646484,41.6894531 C23.6884787,41.484374 23.9003906,41.2041033 23.9003906,40.8486328 C23.9003906,40.561522 23.7750664,40.3632818 23.5244141,40.2539062 C23.2737618,40.1445307 22.8863958,40.0898438 22.3623047,40.0898438 L21.2822266,40.0898438 C20.8994121,40.0898438 20.5792656,40.1798494 20.3217773,40.3598633 C20.0642891,40.5398772 19.9355469,40.7779933 19.9355469,41.0742188 Z M20.6943359,34.8535156 C20.6943359,35.2682312 20.7888988,35.596353 20.9780273,35.8378906 C21.1671559,36.0794283 21.4554017,36.2001953 21.8427734,36.2001953 C22.2347025,36.2001953 22.521809,36.0794283 22.7041016,35.8378906 C22.8863941,35.596353 22.9775391,35.2682312 22.9775391,34.8535156 C22.9775391,33.9329381 22.5992876,33.4726562 21.8427734,33.4726562 C21.0771446,33.4726562 20.6943359,33.9329381 20.6943359,34.8535156 Z M27.2568359,30 L30.3671875,30 C31.7845123,30 32.8133106,30.2016581 33.4536133,30.6049805 C34.093916,31.0083028 34.4140625,31.6497352 34.4140625,32.5292969 C34.4140625,33.1263051 34.2739272,33.616209 33.9936523,33.9990234 C33.7133775,34.3818379 33.3408226,34.6119788 32.8759766,34.6894531 L32.8759766,34.7578125 C33.5094433,34.8990892 33.9663072,35.1634095 34.246582,35.5507812 C34.5268569,35.938153 34.6669922,36.4531218 34.6669922,37.0957031 C34.6669922,38.007166 34.3377312,38.7180964 33.6791992,39.2285156 C33.0206673,39.7389348 32.1263077,39.9941406 30.9960938,39.9941406 L27.2568359,39.9941406 L27.2568359,30 Z M29.3759766,33.9580078 L30.6064453,33.9580078 C31.1806669,33.9580078 31.5965156,33.8691415 31.8540039,33.6914062 C32.1114922,33.513671 32.2402344,33.2197286 32.2402344,32.8095703 C32.2402344,32.4267559 32.1000991,32.1521818 31.8198242,31.9858398 C31.5395494,31.8194979 31.0963572,31.7363281 30.4902344,31.7363281 L29.3759766,31.7363281 L29.3759766,33.9580078 Z M29.3759766,35.6396484 L29.3759766,38.2441406 L30.7568359,38.2441406 C31.3401722,38.2441406 31.7708319,38.1324881 32.0488281,37.9091797 C32.3268243,37.6858713 32.4658203,37.3440778 32.4658203,36.8837891 C32.4658203,36.0543578 31.8733783,35.6396484 30.6884766,35.6396484 L29.3759766,35.6396484 Z M38.1601562,36.1591797 C38.1601562,36.9156939 38.2843412,37.4876283 38.5327148,37.875 C38.7810885,38.2623717 39.1855441,38.4560547 39.7460938,38.4560547 C40.3020861,38.4560547 40.7019845,38.263511 40.9458008,37.878418 C41.1896171,37.4933249 41.3115234,36.9202512 41.3115234,36.1591797 C41.3115234,35.4026655 41.1884778,34.8352883 40.9423828,34.4570312 C40.6962878,34.0787742 40.2929716,33.8896484 39.7324219,33.8896484 C39.1764295,33.8896484 38.7753919,34.0776348 38.5292969,34.4536133 C38.2832019,34.8295917 38.1601562,35.3981082 38.1601562,36.1591797 Z M43.4443359,36.1591797 C43.4443359,37.4033265 43.1162142,38.3762986 42.4599609,39.078125 C41.8037077,39.7799514 40.8899798,40.1308594 39.71875,40.1308594 C38.9850224,40.1308594 38.3378934,39.9702165 37.7773438,39.6489258 C37.2167941,39.3276351 36.7861343,38.8662139 36.4853516,38.2646484 C36.1845688,37.6630829 36.0341797,36.961267 36.0341797,36.1591797 C36.0341797,34.9104755 36.3600228,33.9397821 37.0117188,33.2470703 C37.6634147,32.5543585 38.5794212,32.2080078 39.7597656,32.2080078 C40.4934933,32.2080078 41.1406222,32.3675114 41.7011719,32.6865234 C42.2617216,33.0055354 42.6923813,33.4635387 42.9931641,34.0605469 C43.2939468,34.6575551 43.4443359,35.3570923 43.4443359,36.1591797 Z M46.4521484,36.0908203 L43.9912109,32.3515625 L46.3564453,32.3515625 L47.8398438,34.7851562 L49.3369141,32.3515625 L51.7021484,32.3515625 L49.2138672,36.0908203 L51.8183594,39.9941406 L49.4462891,39.9941406 L47.8398438,37.3759766 L46.2265625,39.9941406 L43.8613281,39.9941406 L46.4521484,36.0908203 Z" id="VegBox" fill="#FFFFFF"></path>
        <g id="carrot" transform="translate(13.000000, 2.000000)" fill="#FFFFFF" fill-rule="nonzero">
            <path d="M19.8786005,12.1341635 C20.282774,12.5166993 20.491597,13.0418755 20.491597,13.6059536 C20.491597,14.2932212 20.1480495,14.9026849 19.6158877,15.2917043 C19.6158877,15.2917043 16.6182675,17.4377947 13.0480682,19.9729045 C12.8594539,20.1090613 12.6102136,20.1090613 12.4215992,19.9858718 L9.90225103,18.3260557 C9.63953824,18.1380296 9.39703414,18.0861604 9.24210096,18.2352845 L9.23536473,18.2417681 C9.10737645,18.3649576 9.13432135,18.6372712 9.32967188,18.8836502 L10.710598,20.964904 C10.858795,21.1918319 10.8049052,21.4965638 10.5758735,21.6586552 L3.53651822,26.6899728 C3.11887226,26.9622864 2.6742814,27.1827307 2.14885583,27.1827307 C0.956543977,27.1827307 0,26.2490842 0,25.0949933 C0,24.6670719 0.134724504,24.2715689 0.336811259,23.9409024 C0.410909736,23.8241966 1.10474093,22.7608769 2.29705279,20.926002 C2.44524974,20.699074 2.74837988,20.6147865 2.99762021,20.737976 L4.11583359,21.2826031 C4.37854637,21.4706292 4.62105048,21.5224984 4.77598366,21.3733743 L4.78271988,21.3668907 C4.91070816,21.2437012 4.88376326,20.9713876 4.68841273,20.7250087 L3.73860498,19.1624474 C3.6375616,18.9938723 3.6375616,18.7863953 3.7453412,18.6243039 C5.38898015,16.0762268 7.06630022,13.5086987 8.54153354,11.2329352 C8.70320294,10.9930399 9.03327798,10.9152361 9.28925453,11.0708438 L11.4650553,12.3999935 C11.7277681,12.5880195 11.9702722,12.6398887 12.1252053,12.4907646 L12.1319416,12.484281 C12.2599298,12.3610915 12.2329849,12.0887779 12.0376344,11.842399 L10.2323261,9.17113241 C10.1178102,9.00255734 10.1178102,8.78211301 10.2255898,8.61353793 C10.8453226,7.6604404 11.0743542,7.32977391 11.0743542,7.32977391 C11.4448466,6.67492458 12.145414,6.27293786 12.9402886,6.27293786 C13.5734938,6.27293786 14.1393367,6.54525145 14.5300377,6.93427085 L19.8449194,12.0952616 C19.8516556,12.1082289 19.8651281,12.1276799 19.8718643,12.1341635 L19.8786005,12.1341635 Z M26.2679516,5.42144928 C26.4301767,5.68206029 26.331431,6.00782405 26.0563538,6.1511601 L19.581459,9.20030887 L17.564226,7.32390962 L21.6269051,0.267866643 C21.7820768,0.0137709124 22.1276867,-0.0774429396 22.4027639,0.0724083887 L23.6511913,0.5936304 C23.9192153,0.736966453 24.0109077,1.06273021 23.855736,1.31031067 L20.5195429,6.45086276 L24.7091807,4.06627205 C24.9772047,3.922936 25.3228145,4.00763458 25.4779863,4.25521503 L26.2679516,5.42144928 Z" id="Shape"></path>
        </g>
    </g>
</svg>