<?xml version="1.0" encoding="UTF-8"?>
<svg width="36px" height="36px" viewBox="0 0 36 36" version="1.1" xmlns="http://www.w3.org/2000/svg" xmlns:xlink="http://www.w3.org/1999/xlink">
    <!-- Generator: Sketch 51.3 (57544) - http://www.bohemiancoding.com/sketch -->
    <title>logo</title>
    <desc>Created with Sketch.</desc>
    <defs></defs>
    <g id="logo" stroke="none" stroke-width="1" fill="none" fill-rule="evenodd">
        <g fill-rule="nonzero">
            <rect id="Rectangle" fill="#78BE97" x="0" y="0" width="36" height="36" rx="8"></rect>
            <g id="carrot" transform="translate(5.000000, 4.000000)" fill="#FFFFFF">
                <path d="M19.9321071,12.734318 C20.3362806,13.1168537 20.5451036,13.6420299 20.5451036,14.206108 C20.5451036,14.8933756 20.2015561,15.5028394 19.6693943,15.8918588 C19.6693943,15.8918588 16.6717741,18.0379491 13.1015747,20.5730589 C12.9129604,20.7092157 12.6637201,20.7092157 12.4751058,20.5860262 L9.95575757,18.9262101 C9.69304478,18.7381841 9.45054068,18.6863148 9.2956075,18.8354389 L9.28887127,18.8419226 C9.16088299,18.9651121 9.18782789,19.2374256 9.38317843,19.4838046 L10.7641046,21.5650584 C10.9123015,21.7919864 10.8584117,22.0967182 10.6293801,22.2588097 L3.59002476,27.2901273 C3.1723788,27.5624408 2.72778794,27.7828852 2.20236238,27.7828852 C1.01005052,27.7828852 0.0535065407,26.8492386 0.0535065407,25.6951477 C0.0535065407,25.2672264 0.188231044,24.8717233 0.3903178,24.5410568 C0.464416277,24.424351 1.15824747,23.3610313 2.35055933,21.5261565 C2.49875628,21.2992285 2.80188642,21.2149409 3.05112675,21.3381304 L4.16934013,21.8827576 C4.43205291,22.0707836 4.67455702,22.1226529 4.8294902,21.9735288 L4.83622642,21.9670451 C4.9642147,21.8438556 4.9372698,21.571542 4.74191927,21.3251631 L3.79211152,19.7626018 C3.69106814,19.5940268 3.69106814,19.3865497 3.79884774,19.2244583 C5.44248669,16.6763812 7.11980676,14.1088532 8.59504008,11.8330897 C8.75670948,11.5931944 9.08678452,11.5153905 9.34276107,11.6709983 L11.5185618,13.0001479 C11.7812746,13.1881739 12.0237787,13.2400432 12.1787119,13.0909191 L12.1854481,13.0844354 C12.3134364,12.9612459 12.2864915,12.6889324 12.091141,12.4425534 L10.2858326,9.77128684 C10.1713168,9.60271177 10.1713168,9.38226744 10.2790964,9.21369237 C10.8988291,8.26059483 11.1278607,7.92992834 11.1278607,7.92992834 C11.4983531,7.27507901 12.1989206,6.8730923 12.9937951,6.8730923 C13.6270003,6.8730923 14.1928432,7.14540588 14.5835443,7.53442528 L19.8984259,12.695416 C19.9051622,12.7083833 19.9186346,12.7278343 19.9253708,12.734318 L19.9321071,12.734318 Z M26.3214582,6.02160372 C26.4836832,6.28221472 26.3849375,6.60797848 26.1098603,6.75131453 L19.6349656,9.8004633 L17.6177326,7.92406406 L21.6804116,0.868021076 C21.8355834,0.613925346 22.1811932,0.522711494 22.4562705,0.672562822 L23.7046979,1.19378483 C23.9727219,1.33712089 24.0644143,1.66288464 23.9092425,1.9104651 L20.5730494,7.05101719 L24.7626872,4.66642649 C25.0307112,4.52309043 25.376321,4.60778901 25.5314928,4.85536946 L26.3214582,6.02160372 Z" id="Shape"></path>
            </g>
        </g>
    </g>
</svg>