<svg xmlns="http://www.w3.org/2000/svg" fill-rule="evenodd" stroke-linejoin="round" stroke-miterlimit="2" clip-rule="evenodd" viewBox="0 0 626 779">
  <g id="owl-peach" fill-rule="nonzero">
    <path id="ope-body" fill="#f89e70" d="M312.521 67.204c-150.829 0-313.492 123.559-280.959 365.413 26.521 197.175 115.342 320.721 280.959 320.721 165.621 0 254.437-123.546 280.962-320.721C626.012 190.763 463.354 67.204 312.521 67.204z"/>
    <g id="ope-head">
      <path id="ope-crest" fill="#f9b17b" d="M484.154 0s-2.675 30.496-52.292 83.529c-49.621 53.033-119.341 55.7-119.341 55.7s-69.721-2.667-119.342-55.7C143.562 30.496 140.891 0 140.891 0s-29.766 68.258 9.021 119.583c38.784 51.329 147.854 64.346 162.609 142.892 14.754-78.546 123.825-91.563 162.608-142.892C513.916 68.258 484.154 0 484.154 0z"/>
      <path id="ope-head-left" fill="#f38067" d="M312.521 277.183c0 81.671-66.204 147.875-147.875 147.875-81.667 0-147.871-66.204-147.871-147.875 0-81.666 66.204-147.87 147.871-147.87 81.671 0 147.875 66.204 147.875 147.87z"/>
      <path id="ope-head-right" fill="#f38067" d="M608.271 277.183c0 81.671-66.209 147.875-147.875 147.875-81.671 0-147.875-66.204-147.875-147.875 0-81.666 66.204-147.87 147.875-147.87 81.666 0 147.875 66.204 147.875 147.87z"/>
    </g>
    <g id="ope-tummy">
      <path id="ope-tummy-bg" fill="#f9b17b" d="M312.521 430.975c-166.829 0-192.859 157.758-195.884 231.842 46.475 58.071 111.092 90.521 195.884 90.521 84.791 0 149.408-32.45 195.887-90.521-3.029-74.084-29.054-231.842-195.887-231.842z"/>
      <path id="ope-tummy-feather" fill="#fed3ac" d="M220.683 516.742h27.508s-12.379 34.012-27.508 0z"/>
      <path id="ope-tummy-feather1" fill="#fed3ac" d="M248.191 516.742h27.505s-12.375 34.012-27.505 0z"/>
      <path id="ope-tummy-feather2" fill="#fed3ac" d="M275.696 516.742h27.508s-12.379 34.012-27.508 0z"/>
      <path id="ope-tummy-feather3" fill="#fed3ac" d="M303.204 516.742h27.508s-12.379 34.012-27.508 0z"/>
      <path id="ope-tummy-feather4" fill="#fed3ac" d="M330.712 516.742h27.505s-12.375 34.012-27.505 0z"/>
      <path id="ope-tummy-feather5" fill="#fed3ac" d="M358.217 516.742h27.508s-12.379 34.012-27.508 0z"/>
      <path id="ope-tummy-feather6" fill="#fed3ac" d="M385.725 516.742h27.508s-12.379 34.012-27.508 0z"/>
      <path id="ope-tummy-feather7" fill="#fed3ac" d="M165.671 556.667h27.508s-12.379 34.012-27.508 0z"/>
      <path id="ope-tummy-feather8" fill="#fed3ac" d="M193.179 556.667h27.504s-12.379 34.012-27.504 0z"/>
      <path id="ope-tummy-feather9" fill="#fed3ac" d="M220.683 556.667h27.508s-12.379 34.012-27.508 0z"/>
      <path id="ope-tummy-feather10" fill="#fed3ac" d="M248.191 556.667h27.505s-12.375 34.012-27.505 0z"/>
      <path id="ope-tummy-feather11" fill="#fed3ac" d="M275.696 556.667h27.508s-12.379 34.012-27.508 0z"/>
      <path id="ope-tummy-feather12" fill="#fed3ac" d="M303.204 556.667h27.508s-12.379 34.012-27.508 0z"/>
      <path id="ope-tummy-feather13" fill="#fed3ac" d="M330.712 556.667h27.505s-12.375 34.012-27.505 0z"/>
      <path id="ope-tummy-feather14" fill="#fed3ac" d="M358.217 556.667h27.508s-12.379 34.012-27.508 0z"/>
      <path id="ope-tummy-feather15" fill="#fed3ac" d="M385.725 556.667h27.508s-12.379 34.012-27.508 0z"/>
      <path id="ope-tummy-feather16" fill="#fed3ac" d="M413.233 556.667h27.504s-12.379 34.012-27.504 0z"/>
      <path id="ope-tummy-feather17" fill="#fed3ac" d="M440.737 556.667h27.509s-12.38 34.012-27.509 0z"/>
      <path id="ope-tummy-feather18" fill="#fed3ac" d="M165.671 599.55h27.508s-12.379 34.013-27.508 0z"/>
      <path id="ope-tummy-feather19" fill="#fed3ac" d="M193.179 599.55h27.504s-12.379 34.013-27.504 0z"/>
      <path id="ope-tummy-feather20" fill="#fed3ac" d="M220.683 599.55h27.508s-12.379 34.013-27.508 0z"/>
      <path id="ope-tummy-feather21" fill="#fed3ac" d="M248.191 599.55h27.505s-12.375 34.013-27.505 0z"/>
      <path id="ope-tummy-feather22" fill="#fed3ac" d="M275.696 599.55h27.508s-12.379 34.013-27.508 0z"/>
      <path id="ope-tummy-feather23" fill="#fed3ac" d="M303.204 599.55h27.508s-12.379 34.013-27.508 0z"/>
      <path id="ope-tummy-feather24" fill="#fed3ac" d="M330.712 599.55h27.505s-12.375 34.013-27.505 0z"/>
      <path id="ope-tummy-feather25" fill="#fed3ac" d="M358.217 599.55h27.508s-12.379 34.013-27.508 0z"/>
      <path id="ope-tummy-feather26" fill="#fed3ac" d="M385.725 599.55h27.508s-12.379 34.013-27.508 0z"/>
      <path id="ope-tummy-feather27" fill="#fed3ac" d="M413.233 599.55h27.504s-12.379 34.013-27.504 0z"/>
      <path id="ope-tummy-feather28" fill="#fed3ac" d="M440.737 599.55h27.509s-12.38 34.013-27.509 0z"/>
      <path id="ope-tummy-feather29" fill="#fed3ac" d="M193.179 642.433h27.504s-12.379 34.013-27.504 0z"/>
      <path id="ope-tummy-feather30" fill="#fed3ac" d="M220.683 642.433h27.508s-12.379 34.013-27.508 0z"/>
      <path id="ope-tummy-feather31" fill="#fed3ac" d="M248.191 642.433h27.505s-12.375 34.013-27.505 0z"/>
      <path id="ope-tummy-feather32" fill="#fed3ac" d="M275.696 642.433h27.508s-12.379 34.013-27.508 0z"/>
      <path id="ope-tummy-feather33" fill="#fed3ac" d="M303.204 642.433h27.508s-12.379 34.013-27.508 0z"/>
      <path id="ope-tummy-feather34" fill="#fed3ac" d="M330.712 642.433h27.505s-12.375 34.013-27.505 0z"/>
      <path id="ope-tummy-feather35" fill="#fed3ac" d="M358.217 642.433h27.508s-12.379 34.013-27.508 0z"/>
      <path id="ope-tummy-feather36" fill="#fed3ac" d="M385.725 642.433h27.508s-12.379 34.013-27.508 0z"/>
      <path id="ope-tummy-feather37" fill="#fed3ac" d="M413.233 642.433h27.504s-12.379 34.013-27.504 0z"/>
      <path id="ope-tummy-feather38" fill="#fed3ac" d="M220.683 685.317h27.508s-12.379 34.012-27.508 0z"/>
      <path id="ope-tummy-feather39" fill="#fed3ac" d="M248.191 685.317h27.505s-12.375 34.012-27.505 0z"/>
      <path id="ope-tummy-feather40" fill="#fed3ac" d="M275.696 685.317h27.508s-12.379 34.012-27.508 0z"/>
      <path id="ope-tummy-feather41" fill="#fed3ac" d="M303.204 685.317h27.508s-12.379 34.012-27.508 0z"/>
      <path id="ope-tummy-feather42" fill="#fed3ac" d="M330.712 685.317h27.505s-12.375 34.012-27.505 0z"/>
      <path id="ope-tummy-feather43" fill="#fed3ac" d="M358.217 685.317h27.508s-12.379 34.012-27.508 0z"/>
      <path id="ope-tummy-feather44" fill="#fed3ac" d="M385.725 685.317h27.508s-12.379 34.012-27.508 0z"/>
    </g>
    <g id="ope-ears" fill="#f38067">
      <path id="ope-ear-left" d="M44.658 190.812S-.588 99.658 35.208 75.567c35.796-24.088 199.229 71.229 199.229 71.229s-133.929-.946-189.779 44.016z"/>
      <path id="ope-ear-right" d="M578.608 190.812s45.246-91.154 9.446-115.245c-35.796-24.088-199.229 71.229-199.229 71.229s133.929-.946 189.783 44.016z"/>
    </g>
    <g id="ope-eyes">
      <g id="ope-eye-left">
        <path fill="#fff" d="M276.267 277.183c0 60.846-49.325 110.167-110.167 110.167S55.933 338.029 55.933 277.183c0-60.841 49.325-110.162 110.167-110.162s110.167 49.321 110.167 110.162z"/>
        <g id="ope-eyeball-left">
          <path fill="#414042" d="M107.691 277.183c0 32.263 26.15 58.413 58.409 58.413 32.258 0 58.408-26.15 58.408-58.413 0-5.358-.779-10.529-2.133-15.458h-112.55c-1.354 4.929-2.134 10.1-2.134 15.458z"/>
          <path fill="#fff" d="M171.3 271.667c0 11.637-9.434 21.071-21.071 21.071-11.638 0-21.071-9.434-21.071-21.071 0-11.638 9.433-21.071 21.071-21.071 11.637 0 21.071 9.433 21.071 21.071zM201.804 314.525a9.428 9.428 0 01-9.429 9.429c-5.208 0-9.434-4.221-9.434-9.429s4.226-9.433 9.434-9.433c5.208 0 9.429 4.225 9.429 9.433z"/>
        </g>
      </g>
      <g id="ope-eye-right">
        <path fill="#fff" d="M569.108 277.183c0 60.846-49.321 110.167-110.167 110.167-60.841 0-110.166-49.321-110.166-110.167 0-60.841 49.325-110.162 110.166-110.162 60.846 0 110.167 49.321 110.167 110.162z"/>
        <g id="ope-eyeball-right">
          <path fill="#414042" d="M402.667 261.725c-1.351 4.929-2.134 10.1-2.134 15.458 0 32.263 26.15 58.413 58.408 58.413 32.259 0 58.413-26.15 58.413-58.413 0-5.358-.783-10.529-2.138-15.458H402.667z"/>
          <path fill="#fff" d="M464.146 271.667c0 11.637-9.438 21.071-21.075 21.071-11.638 0-21.071-9.434-21.071-21.071 0-11.638 9.433-21.071 21.071-21.071 11.637 0 21.075 9.433 21.075 21.071zM494.646 314.525a9.429 9.429 0 01-9.43 9.429c-5.208 0-9.433-4.221-9.433-9.429s4.225-9.433 9.433-9.433c5.209 0 9.43 4.225 9.43 9.433z"/>
        </g>
      </g>
    </g>
    <path id="ope-beak" fill="#ffce40" d="M312.521 331.542l-34.8 35.858 34.8 50.621 34.804-50.621-34.804-35.858z"/>
    <g id="ope-feet" fill="#faaf41">
      <path id="ope-foot-left" d="M195.617 706.483c-18.3 0-34.184 24.4-34.184 47.134 0 22.737 19.767 18.3 23.092 11.091 0 0 .558 13.309 11.092 13.309 10.537 0 11.091-13.309 11.091-13.309 3.325 7.209 23.092 11.646 23.092-11.091 0-22.734-15.884-47.134-34.183-47.134z"/>
      <path id="ope-foot-right" d="M429.425 706.483c-18.3 0-34.183 24.4-34.183 47.134 0 22.737 19.766 18.3 23.091 11.091 0 0 .554 13.309 11.092 13.309 10.537 0 11.092-13.309 11.092-13.309 3.325 7.209 23.091 11.646 23.091-11.091 0-22.734-15.883-47.134-34.183-47.134z"/>
    </g>
    <g id="ope-wings" fill="#fdc68a">
      <path id="ope-wing-left" d="M68.962 426.025c-73.412-12.154-108.8 86.658 0 182.45 0 0 28.442-29.896 7.634-43.025 0 0 22.179-14.758 7.612-29.996 0 0 23.092-24.866 4.958-37.708 0 0 44.267-61.05-20.204-71.721z"/>
      <path id="ope-wing-right" d="M556.079 426.025c73.417-12.154 108.8 86.658 0 182.45 0 0-28.442-29.896-7.629-43.025 0 0-22.183-14.758-7.617-29.996 0 0-23.092-24.866-4.954-37.708 0 0-44.271-61.05 20.2-71.721z"/>
    </g>
  </g>
</svg>
