<svg xmlns="http://www.w3.org/2000/svg" fill-rule="evenodd" stroke-linejoin="round" stroke-miterlimit="2" clip-rule="evenodd" viewBox="0 0 737 725">
  <g id="owl-purple" fill-rule="nonzero">
    <path id="opu-body" fill="#ad56a1" d="M652.734 318.203C650.547 165.22 636.03-15.968 614.076 1.124c-23.838 18.566-156.15 57.041-245.904 57.129-89.755-.088-222.067-38.563-245.905-57.129-22.833-17.775-37.62 178.912-38.862 335.296-.05 2.65-.063 5.32-.05 8.008a2709.03 2709.03 0 00-.038 12.992h.3c.53 13.645 1.8 27.737 3.896 42.3 26.525 184.254 115.342 299.704 280.963 299.704 165.616 0 254.437-115.45 280.958-299.704 4.175-29 5.117-56.167 3.3-81.517z"/>
    <g id="opu-tummy">
      <path id="opu-tummy-bg" fill="#c58cbd" d="M368.476 394.978c-166.834 0-192.859 148.992-195.888 218.954 46.479 54.842 111.092 85.488 195.888 85.488 84.791 0 149.408-30.646 195.883-85.488-3.025-69.962-29.054-218.954-195.883-218.954z"/>
      <g id="opu-tummy-feathers" fill="#ad56a1">
        <path id="opu-tummy-feather" d="M276.638 462.824h27.504s-12.375 34.012-27.504 0z"/>
        <path id="opu-tummy-feather1" d="M304.142 462.824h27.509s-12.379 34.012-27.509 0z"/>
        <path id="opu-tummy-feather2" d="M331.651 462.824h27.508s-12.379 34.012-27.508 0z"/>
        <path id="opu-tummy-feather3" d="M359.159 462.824h27.504s-12.375 34.012-27.504 0z"/>
        <path id="opu-tummy-feather4" d="M386.663 462.824h27.509s-12.38 34.012-27.509 0z"/>
        <path id="opu-tummy-feather5" d="M414.172 462.824h27.508s-12.379 34.012-27.508 0z"/>
        <path id="opu-tummy-feather6" d="M441.68 462.824h27.504s-12.379 34.012-27.504 0z"/>
        <path id="opu-tummy-feather7" d="M221.626 502.749h27.504s-12.379 34.012-27.504 0z"/>
        <path id="opu-tummy-feather8" d="M249.13 502.749h27.508s-12.379 34.012-27.508 0z"/>
        <path id="opu-tummy-feather9" d="M276.638 502.749h27.504s-12.375 34.012-27.504 0z"/>
        <path id="opu-tummy-feather10" d="M304.142 502.749h27.509s-12.379 34.012-27.509 0z"/>
        <path id="opu-tummy-feather11" d="M331.651 502.749h27.508s-12.379 34.012-27.508 0z"/>
        <path id="opu-tummy-feather12" d="M359.159 502.749h27.504s-12.375 34.012-27.504 0z"/>
        <path id="opu-tummy-feather13" d="M386.663 502.749h27.509s-12.38 34.012-27.509 0z"/>
        <path id="opu-tummy-feather14" d="M414.172 502.749h27.508s-12.379 34.012-27.508 0z"/>
        <path id="opu-tummy-feather15" d="M441.68 502.749h27.504s-12.379 34.012-27.504 0z"/>
        <path id="opu-tummy-feather16" d="M469.184 502.749h27.508s-12.379 34.012-27.508 0z"/>
        <path id="opu-tummy-feather17" d="M496.692 502.749h27.505s-12.375 34.012-27.505 0z"/>
        <path id="opu-tummy-feather18" d="M221.626 545.632h27.504s-12.379 34.013-27.504 0z"/>
        <path id="opu-tummy-feather19" d="M249.13 545.632h27.508s-12.379 34.013-27.508 0z"/>
        <path id="opu-tummy-feather20" d="M276.638 545.632h27.504s-12.375 34.013-27.504 0z"/>
        <path id="opu-tummy-feather21" d="M304.142 545.632h27.509s-12.379 34.013-27.509 0z"/>
        <path id="opu-tummy-feather22" d="M331.651 545.632h27.508s-12.379 34.013-27.508 0z"/>
        <path id="opu-tummy-feather23" d="M359.159 545.632h27.504s-12.375 34.013-27.504 0z"/>
        <path id="opu-tummy-feather24" d="M386.663 545.632h27.509s-12.38 34.013-27.509 0z"/>
        <path id="opu-tummy-feather25" d="M414.172 545.632h27.508s-12.379 34.013-27.508 0z"/>
        <path id="opu-tummy-feather26" d="M441.68 545.632h27.504s-12.379 34.013-27.504 0z"/>
        <path id="opu-tummy-feather27" d="M469.184 545.632h27.508s-12.379 34.013-27.508 0z"/>
        <path id="opu-tummy-feather28" d="M496.692 545.632h27.505s-12.375 34.013-27.505 0z"/>
        <path id="opu-tummy-feather29" d="M249.13 588.515h27.508s-12.379 34.013-27.508 0z"/>
        <path id="opu-tummy-feather30" d="M276.638 588.515h27.504s-12.375 34.013-27.504 0z"/>
        <path id="opu-tummy-feather31" d="M304.142 588.515h27.509s-12.379 34.013-27.509 0z"/>
        <path id="opu-tummy-feather32" d="M331.651 588.515h27.508s-12.379 34.013-27.508 0z"/>
        <path id="opu-tummy-feather33" d="M359.159 588.515h27.504s-12.375 34.013-27.504 0z"/>
        <path id="opu-tummy-feather34" d="M386.663 588.515h27.509s-12.38 34.013-27.509 0z"/>
        <path id="opu-tummy-feather35" d="M414.172 588.515h27.508s-12.379 34.013-27.508 0z"/>
        <path id="opu-tummy-feather36" d="M441.68 588.515h27.504s-12.379 34.013-27.504 0z"/>
        <path id="opu-tummy-feather37" d="M469.184 588.515h27.508s-12.379 34.013-27.508 0z"/>
        <path id="opu-tummy-feather38" d="M276.638 631.399h27.504s-12.375 34.012-27.504 0z"/>
        <path id="opu-tummy-feather39" d="M304.142 631.399h27.509s-12.379 34.012-27.509 0z"/>
        <path id="opu-tummy-feather40" d="M331.651 631.399h27.508s-12.379 34.012-27.508 0z"/>
        <path id="opu-tummy-feather41" d="M359.159 631.399h27.504s-12.375 34.012-27.504 0z"/>
        <path id="opu-tummy-feather42" d="M386.663 631.399h27.509s-12.38 34.012-27.509 0z"/>
        <path id="opu-tummy-feather43" d="M414.172 631.399h27.508s-12.379 34.012-27.508 0z"/>
        <path id="opu-tummy-feather44" d="M441.68 631.399h27.504s-12.379 34.012-27.504 0z"/>
      </g>
    </g>
    <g id="opu-head" fill="#c58cbd">
      <g id="opu-ears">
        <path id="opu-wing-left" d="M147.788 75.395c-19.887 10-31.821 2.045-22.871-29.775 8.95-31.821 64.517 8.97 47.671 16.916-16.85 7.942-24.8 12.859-24.8 12.859z"/>
        <path id="opu-ear-right" d="M596.338 71.336c19.888 10 31.817 2.046 22.867-29.775-8.946-31.821-64.517 8.971-47.671 16.917 16.846 7.942 24.804 12.858 24.804 12.858z"/>
      </g>
      <path id="opu-head-left" d="M368.476 223.265c0 81.671-66.204 147.875-147.875 147.875-81.667 0-147.875-66.204-147.875-147.875 0-81.666 66.208-147.87 147.875-147.87 81.671 0 147.875 66.204 147.875 147.87z"/>
      <path id="opu-head-right" d="M664.222 223.265c0 81.671-66.205 147.875-147.871 147.875-81.671 0-147.875-66.204-147.875-147.875 0-81.666 66.204-147.87 147.875-147.87 81.666 0 147.871 66.204 147.871 147.87z"/>
    </g>
    <g id="ope-eyes">
      <g id="opu-eye-left">
        <path fill="#fff" d="M332.222 223.265c0 60.846-49.325 110.167-110.167 110.167-60.846 0-110.167-49.321-110.167-110.167 0-60.841 49.321-110.166 110.167-110.166 60.842 0 110.167 49.325 110.167 110.166z"/>
        <g id="opu-eyeball-left">
          <path fill="#404042" d="M280.463 223.265c0 32.263-26.15 58.413-58.408 58.413s-58.413-26.15-58.413-58.413c0-32.258 26.155-58.408 58.413-58.408 32.258 0 58.408 26.15 58.408 58.408z"/>
          <path fill="#fff" d="M227.255 185.928c0 11.637-9.433 21.075-21.071 21.075-11.637 0-21.075-9.438-21.075-21.075 0-11.638 9.438-21.071 21.075-21.071 11.638 0 21.071 9.433 21.071 21.071zM257.759 260.607c0 5.208-4.225 9.429-9.433 9.429a9.428 9.428 0 01-9.429-9.429c0-5.212 4.22-9.433 9.429-9.433a9.433 9.433 0 019.433 9.433z"/>
        </g>
      </g>
      <g id="opu-eye-right">
        <path fill="#fff" d="M625.063 223.265c0 60.846-49.325 110.167-110.166 110.167-60.842 0-110.167-49.321-110.167-110.167 0-60.841 49.325-110.166 110.167-110.166 60.841 0 110.166 49.325 110.166 110.166z"/>
        <path id="opu-eyeball-right" fill="#404042" d="M535.926 169.211s-69.509 12.329-80.496 87.042c0 0 56.633-2.071 95.083 21.071l7.954-30.504s-47.733-21.925-80.879-6.013c0 0 18.563-39.192 64.967-38.158l-6.629-33.438z"/>
      </g>
    </g>
    <path id="opu-beak" fill="#ffce40" d="M368.476 277.624l-34.804 35.858 34.804 50.621 34.8-50.621-34.8-35.858z"/>
    <g id="opu-feet" fill="#faaf41">
      <path id="opu-foot-left" d="M251.572 652.565c-18.3 0-34.184 24.396-34.184 47.134 0 22.737 19.767 18.3 23.092 11.091 0 0 .554 13.309 11.092 13.309 10.537 0 11.091-13.309 11.091-13.309 3.325 7.209 23.092 11.646 23.092-11.091 0-22.738-15.883-47.134-34.183-47.134z"/>
      <path id="opu-foot-right" d="M485.38 652.565c-18.3 0-34.183 24.396-34.183 47.134 0 22.737 19.762 18.3 23.091 11.091 0 0 .554 13.309 11.092 13.309 10.533 0 11.087-13.309 11.087-13.309 3.33 7.209 23.096 11.646 23.096-11.091 0-22.738-15.883-47.134-34.183-47.134z"/>
    </g>
    <g id="opu-wings" fill="#c58cbd">
      <path id="opu-wing-left1" d="M108.147 341.62C47.413 314.603 7.384 237.436 7.384 237.436s-43.746 231.279 81.717 263.842c112.387 29.167 87.991-128.988 19.046-159.658z"/>
      <path id="opu-wing-right" d="M628.788 341.62c60.734-27.017 100.763-104.184 100.763-104.184s43.741 231.279-81.721 263.842c-112.383 29.167-87.988-128.988-19.042-159.658z"/>
    </g>
  </g>
</svg>
