<svg xmlns="http://www.w3.org/2000/svg" fill-rule="evenodd" stroke-linejoin="round" stroke-miterlimit="2" clip-rule="evenodd" viewBox="0 0 641 725">
  <g id="owl-pink" fill-rule="nonzero">
    <path id="op-body" fill="#f17a94" d="M320.069 13.29C169.24 13.29 6.578 136.848 39.111 378.706c26.521 197.175 115.342 320.721 280.958 320.721 165.621 0 254.438-123.546 280.963-320.721C633.565 136.848 470.903 13.29 320.069 13.29z"/>
    <g id="op-tummy">
      <path id="op-tummy-bg" fill="#f7a7b6" d="M320.069 377.06c-166.829 0-192.858 157.763-195.883 231.846 46.475 58.067 111.092 90.521 195.883 90.521 84.796 0 149.409-32.454 195.888-90.521-3.025-74.083-29.054-231.846-195.888-231.846z"/>
      <path id="op-tummy-feather" fill="#fad9e8" d="M228.232 462.827h27.508s-12.379 34.013-27.508 0z"/>
      <path id="op-tummy-feather1" fill="#fad9e8" d="M255.74 462.827h27.504s-12.375 34.013-27.504 0z"/>
      <path id="op-tummy-feather2" fill="#fad9e8" d="M283.244 462.827h27.509s-12.379 34.013-27.509 0z"/>
      <path id="op-tummy-feather3" fill="#fad9e8" d="M310.753 462.827h27.508s-12.379 34.013-27.508 0z"/>
      <path id="op-tummy-feather4" fill="#fad9e8" d="M338.261 462.827h27.504s-12.375 34.013-27.504 0z"/>
      <path id="op-tummy-feather5" fill="#fad9e8" d="M365.765 462.827h27.509s-12.38 34.013-27.509 0z"/>
      <path id="op-tummy-feather6" fill="#fad9e8" d="M393.274 462.827h27.508s-12.379 34.013-27.508 0z"/>
      <path id="op-tummy-feather7" fill="#fad9e8" d="M173.219 502.756h27.509s-12.38 34.008-27.509 0z"/>
      <path id="op-tummy-feather8" fill="#fad9e8" d="M200.728 502.756h27.504s-12.379 34.008-27.504 0z"/>
      <path id="op-tummy-feather9" fill="#fad9e8" d="M228.232 502.756h27.508s-12.379 34.008-27.508 0z"/>
      <path id="op-tummy-feather10" fill="#fad9e8" d="M255.74 502.756h27.504s-12.375 34.008-27.504 0z"/>
      <path id="op-tummy-feather11" fill="#fad9e8" d="M283.244 502.756h27.509s-12.379 34.008-27.509 0z"/>
      <path id="op-tummy-feather12" fill="#fad9e8" d="M310.753 502.756h27.508s-12.379 34.008-27.508 0z"/>
      <path id="op-tummy-feather13" fill="#fad9e8" d="M338.261 502.756h27.504s-12.375 34.008-27.504 0z"/>
      <path id="op-tummy-feather14" fill="#fad9e8" d="M365.765 502.756h27.509s-12.38 34.008-27.509 0z"/>
      <path id="op-tummy-feather15" fill="#fad9e8" d="M393.274 502.756h27.508s-12.379 34.008-27.508 0z"/>
      <path id="op-tummy-feather16" fill="#fad9e8" d="M420.782 502.756h27.504s-12.379 34.008-27.504 0z"/>
      <path id="op-tummy-feather17" fill="#fad9e8" d="M448.286 502.756h27.508s-12.379 34.008-27.508 0z"/>
      <path id="op-tummy-feather18" fill="#fad9e8" d="M173.219 545.639h27.509s-12.38 34.009-27.509 0z"/>
      <path id="op-tummy-feather19" fill="#fad9e8" d="M200.728 545.639h27.504s-12.379 34.009-27.504 0z"/>
      <path id="op-tummy-feather20" fill="#fad9e8" d="M228.232 545.639h27.508s-12.379 34.009-27.508 0z"/>
      <path id="op-tummy-feather21" fill="#fad9e8" d="M255.74 545.639h27.504s-12.375 34.009-27.504 0z"/>
      <path id="op-tummy-feather22" fill="#fad9e8" d="M283.244 545.639h27.509s-12.379 34.009-27.509 0z"/>
      <path id="op-tummy-feather23" fill="#fad9e8" d="M310.753 545.639h27.508s-12.379 34.009-27.508 0z"/>
      <path id="op-tummy-feather24" fill="#fad9e8" d="M338.261 545.639h27.504s-12.375 34.009-27.504 0z"/>
      <path id="op-tummy-feather25" fill="#fad9e8" d="M365.765 545.639h27.509s-12.38 34.009-27.509 0z"/>
      <path id="op-tummy-feather26" fill="#fad9e8" d="M393.274 545.639h27.508s-12.379 34.009-27.508 0z"/>
      <path id="op-tummy-feather27" fill="#fad9e8" d="M420.782 545.639h27.504s-12.379 34.009-27.504 0z"/>
      <path id="op-tummy-feather28" fill="#fad9e8" d="M448.286 545.639h27.508s-12.379 34.009-27.508 0z"/>
      <path id="op-tummy-feather29" fill="#fad9e8" d="M200.728 588.523h27.504s-12.379 34.008-27.504 0z"/>
      <path id="op-tummy-feather30" fill="#fad9e8" d="M228.232 588.523h27.508s-12.379 34.008-27.508 0z"/>
      <path id="op-tummy-feather31" fill="#fad9e8" d="M255.74 588.523h27.504s-12.375 34.008-27.504 0z"/>
      <path id="op-tummy-feather32" fill="#fad9e8" d="M283.244 588.523h27.509s-12.379 34.008-27.509 0z"/>
      <path id="op-tummy-feather33" fill="#fad9e8" d="M310.753 588.523h27.508s-12.379 34.008-27.508 0z"/>
      <path id="op-tummy-feather34" fill="#fad9e8" d="M338.261 588.523h27.504s-12.375 34.008-27.504 0z"/>
      <path id="op-tummy-feather35" fill="#fad9e8" d="M365.765 588.523h27.509s-12.38 34.008-27.509 0z"/>
      <path id="op-tummy-feather36" fill="#fad9e8" d="M393.274 588.523h27.508s-12.379 34.008-27.508 0z"/>
      <path id="op-tummy-feather37" fill="#fad9e8" d="M420.782 588.523h27.504s-12.379 34.008-27.504 0z"/>
      <path id="op-tummy-feather38" fill="#fad9e8" d="M228.232 631.406h27.508s-12.379 34.008-27.508 0z"/>
      <path id="op-tummy-feather39" fill="#fad9e8" d="M255.74 631.406h27.504s-12.375 34.008-27.504 0z"/>
      <path id="op-tummy-feather40" fill="#fad9e8" d="M283.244 631.406h27.509s-12.379 34.008-27.509 0z"/>
      <path id="op-tummy-feather41" fill="#fad9e8" d="M310.753 631.406h27.508s-12.379 34.008-27.508 0z"/>
      <path id="op-tummy-feather42" fill="#fad9e8" d="M338.261 631.406h27.504s-12.375 34.008-27.504 0z"/>
      <path id="op-tummy-feather43" fill="#fad9e8" d="M365.765 631.406h27.509s-12.38 34.008-27.509 0z"/>
      <path id="op-tummy-feather44" fill="#fad9e8" d="M393.274 631.406h27.508s-12.379 34.008-27.508 0z"/>
    </g>
    <g id="op-head">
      <g id="op-ears" fill="#ec297c">
        <path id="op-ear-right" d="M433.019 37.398s117.85-48.121 133.763-35.192c15.908 12.925-16.909 91.479-26.85 105.4-9.946 13.925-97.483-53.908-106.913-70.208z"/>
        <path id="op-ear-left" d="M207.119 37.398S89.269-10.723 73.361 2.206c-15.912 12.925 16.904 91.479 26.846 105.4 9.946 13.925 97.483-53.908 106.912-70.208z"/>
      </g>
      <path id="op-head-bg" fill="#ee5285" d="M467.944 75.398c-34.47 0-66.158 11.825-91.304 31.6l-.004.004c-1.029.808-2.067 1.604-3.075 2.442-48.246 38.045-92.154 11.325-105.733 1.083-25.788-21.896-59.155-35.129-95.634-35.129-81.666 0-147.871 66.204-147.871 147.875 0 81.666 66.205 147.875 147.871 147.875 35.884 0 68.775-12.788 94.384-34.046 48.25-38.05 92.162-11.325 105.737-1.079 1.417 1.2 2.863 2.375 4.325 3.525 25.146 19.771 56.834 31.6 91.304 31.6 81.667 0 147.875-66.209 147.875-147.875 0-81.671-66.208-147.875-147.875-147.875z"/>
    </g>
    <g id="op-eyes">
      <g id="op-eye-left">
        <path fill="#fff" d="M269.494 223.273c0 55.508-45 100.508-100.512 100.508-55.509 0-100.508-45-100.508-100.508 0-55.513 44.999-100.513 100.508-100.513 55.512 0 100.512 45 100.512 100.513z"/>
        <path fill="#404042" d="M209.303 231.89c-14.2-24.771-28.767-37.421-42.179-36.746-18.246 1-33.234 26.441-37.471 36.162l-10.938-4.766c.742-1.705 18.504-41.709 47.754-43.309 18.392-1.033 36.359 13.363 53.188 42.725l-10.354 5.934z"/>
      </g>
      <g id="op-eye-right">
        <path fill="#fff" d="M571.669 223.273c0 55.508-45 100.508-100.512 100.508-55.509 0-100.508-45-100.508-100.508 0-55.513 44.999-100.513 100.508-100.513 55.512 0 100.512 45 100.512 100.513z"/>
        <path fill="#404042" d="M435.824 231.89l-10.355-5.934c16.829-29.362 34.634-43.717 53.192-42.725 29.246 1.6 47.004 41.604 47.746 43.309l-10.938 4.77c-.15-.35-15.566-34.983-37.487-36.166-13.292-.721-27.971 11.983-42.158 36.746z"/>
      </g>
    </g>
    <path id="op-beak" fill="#ffce40" d="M320.069 277.631l-34.8 35.854 34.8 50.625 34.804-50.625-34.804-35.854z"/>
    <g id="op-feet" fill="#faaf41">
      <path id="op-foot-left" d="M203.165 652.569c-18.3 0-34.183 24.4-34.183 47.133 0 22.738 19.767 18.3 23.096 11.092 0 0 .554 13.308 11.087 13.308 10.538 0 11.092-13.308 11.092-13.308 3.329 7.208 23.092 11.646 23.092-11.092 0-22.733-15.884-47.133-34.184-47.133z"/>
      <path id="op-foot-right" d="M436.974 652.569c-18.3 0-34.184 24.4-34.184 47.133 0 22.738 19.767 18.3 23.092 11.092 0 0 .554 13.308 11.092 13.308 10.537 0 11.091-13.308 11.091-13.308 3.325 7.208 23.092 11.646 23.092-11.092 0-22.733-15.883-47.133-34.183-47.133z"/>
    </g>
    <g id="op-wings" fill="#ee5285">
      <path id="op-wing-left" d="M38.299 345.923c-62.392 10.058-53.476 157.442 63.404 233.162 0 0-16.7-69.17-7.159-116.583 9.542-47.408 10.342-127.312-56.245-116.579z"/>
      <path id="op-wing-right" d="M601.744 345.923c62.392 10.058 53.471 157.442-63.404 233.162 0 0 16.696-69.17 7.158-116.583-9.541-47.408-10.345-127.312 56.246-116.579z"/>
    </g>
  </g>
</svg>
