<svg xmlns="http://www.w3.org/2000/svg" fill-rule="evenodd" stroke-linejoin="round" stroke-miterlimit="2" clip-rule="evenodd" viewBox="0 0 626 738">
  <g id="owl-brown" fill-rule="nonzero">
    <path id="obr-body" fill="#9a847a" d="M312.785 27.1C161.951 27.1-.707 150.658 31.822 392.513c26.525 197.174 115.342 320.72 280.963 320.72 165.62 0 254.437-123.546 280.962-320.72C626.276 150.658 463.618 27.1 312.785 27.1z"/>
    <g id="obr-tummy">
      <path id="obr-tummy-bg" fill="#c1b49a" d="M312.785 390.871c-166.83 0-192.859 157.758-195.888 231.842 46.479 58.07 111.096 90.52 195.888 90.52 84.791 0 149.408-32.45 195.883-90.52-3.025-74.084-29.054-231.842-195.883-231.842z"/>
      <path id="obr-tummy-feather" fill="#ead7a3" d="M220.947 476.638h27.508s-12.379 34.012-27.508 0z"/>
      <path id="obr-tummy-feather1" fill="#ead7a3" d="M248.455 476.638h27.505s-12.375 34.012-27.505 0z"/>
      <path id="obr-tummy-feather2" fill="#ead7a3" d="M275.96 476.638h27.508s-12.379 34.012-27.508 0z"/>
      <path id="obr-tummy-feather3" fill="#ead7a3" d="M303.468 476.638h27.508s-12.379 34.012-27.508 0z"/>
      <path id="obr-tummy-feather4" fill="#ead7a3" d="M330.976 476.638h27.504s-12.379 34.012-27.504 0z"/>
      <path id="obr-tummy-feather5" fill="#ead7a3" d="M358.48 476.638h27.509s-12.379 34.012-27.509 0z"/>
      <path id="obr-tummy-feather6" fill="#ead7a3" d="M385.989 476.638h27.504s-12.375 34.012-27.504 0z"/>
      <path id="obr-tummy-feather7" fill="#ead7a3" d="M165.935 516.563h27.504s-12.375 34.012-27.504 0z"/>
      <path id="obr-tummy-feather8" fill="#ead7a3" d="M193.439 516.563h27.508s-12.379 34.012-27.508 0z"/>
      <path id="obr-tummy-feather9" fill="#ead7a3" d="M220.947 516.563h27.508s-12.379 34.012-27.508 0z"/>
      <path id="obr-tummy-feather10" fill="#ead7a3" d="M248.455 516.563h27.505s-12.375 34.012-27.505 0z"/>
      <path id="obr-tummy-feather11" fill="#ead7a3" d="M275.96 516.563h27.508s-12.379 34.012-27.508 0z"/>
      <path id="obr-tummy-feather12" fill="#ead7a3" d="M303.468 516.563h27.508s-12.379 34.012-27.508 0z"/>
      <path id="obr-tummy-feather13" fill="#ead7a3" d="M330.976 516.563h27.504s-12.379 34.012-27.504 0z"/>
      <path id="obr-tummy-feather14" fill="#ead7a3" d="M358.48 516.563h27.509s-12.379 34.012-27.509 0z"/>
      <path id="obr-tummy-feather15" fill="#ead7a3" d="M385.989 516.563h27.504s-12.375 34.012-27.504 0z"/>
      <path id="obr-tummy-feather16" fill="#ead7a3" d="M413.493 516.563h27.508s-12.379 34.012-27.508 0z"/>
      <path id="obr-tummy-feather17" fill="#ead7a3" d="M441.001 516.563h27.509s-12.38 34.012-27.509 0z"/>
      <path id="obr-tummy-feather18" fill="#ead7a3" d="M165.935 559.446h27.504s-12.375 34.012-27.504 0z"/>
      <path id="obr-tummy-feather19" fill="#ead7a3" d="M193.439 559.446h27.508s-12.379 34.012-27.508 0z"/>
      <path id="obr-tummy-feather20" fill="#ead7a3" d="M220.947 559.446h27.508s-12.379 34.012-27.508 0z"/>
      <path id="obr-tummy-feather21" fill="#ead7a3" d="M248.455 559.446h27.505s-12.375 34.012-27.505 0z"/>
      <path id="obr-tummy-feather22" fill="#ead7a3" d="M275.96 559.446h27.508s-12.379 34.012-27.508 0z"/>
      <path id="obr-tummy-feather23" fill="#ead7a3" d="M303.468 559.446h27.508s-12.379 34.012-27.508 0z"/>
      <path id="obr-tummy-feather24" fill="#ead7a3" d="M330.976 559.446h27.504s-12.379 34.012-27.504 0z"/>
      <path id="obr-tummy-feather25" fill="#ead7a3" d="M358.48 559.446h27.509s-12.379 34.012-27.509 0z"/>
      <path id="obr-tummy-feather26" fill="#ead7a3" d="M385.989 559.446h27.504s-12.375 34.012-27.504 0z"/>
      <path id="obr-tummy-feather27" fill="#ead7a3" d="M413.493 559.446h27.508s-12.379 34.012-27.508 0z"/>
      <path id="obr-tummy-feather28" fill="#ead7a3" d="M441.001 559.446h27.509s-12.38 34.012-27.509 0z"/>
      <path id="obr-tummy-feather29" fill="#ead7a3" d="M193.439 602.329h27.508s-12.379 34.013-27.508 0z"/>
      <path id="obr-tummy-feather30" fill="#ead7a3" d="M220.947 602.329h27.508s-12.379 34.013-27.508 0z"/>
      <path id="obr-tummy-feather31" fill="#ead7a3" d="M248.455 602.329h27.505s-12.375 34.013-27.505 0z"/>
      <path id="obr-tummy-feather32" fill="#ead7a3" d="M275.96 602.329h27.508s-12.379 34.013-27.508 0z"/>
      <path id="obr-tummy-feather33" fill="#ead7a3" d="M303.468 602.329h27.508s-12.379 34.013-27.508 0z"/>
      <path id="obr-tummy-feather34" fill="#ead7a3" d="M330.976 602.329h27.504s-12.379 34.013-27.504 0z"/>
      <path id="obr-tummy-feather35" fill="#ead7a3" d="M358.48 602.329h27.509s-12.379 34.013-27.509 0z"/>
      <path id="obr-tummy-feather36" fill="#ead7a3" d="M385.989 602.329h27.504s-12.375 34.013-27.504 0z"/>
      <path id="obr-tummy-feather37" fill="#ead7a3" d="M413.493 602.329h27.508s-12.379 34.013-27.508 0z"/>
      <path id="obr-tummy-feather38" fill="#ead7a3" d="M220.947 645.213h27.508s-12.379 34.012-27.508 0z"/>
      <path id="obr-tummy-feather39" fill="#ead7a3" d="M248.455 645.213h27.505s-12.375 34.012-27.505 0z"/>
      <path id="obr-tummy-feather40" fill="#ead7a3" d="M275.96 645.213h27.508s-12.379 34.012-27.508 0z"/>
      <path id="obr-tummy-feather41" fill="#ead7a3" d="M303.468 645.213h27.508s-12.379 34.012-27.508 0z"/>
      <path id="obr-tummy-feather42" fill="#ead7a3" d="M330.976 645.213h27.504s-12.379 34.012-27.504 0z"/>
      <path id="obr-tummy-feather43" fill="#ead7a3" d="M358.48 645.213h27.509s-12.379 34.012-27.509 0z"/>
      <path id="obr-tummy-feather44" fill="#ead7a3" d="M385.989 645.213h27.504s-12.375 34.012-27.504 0z"/>
    </g>
    <g id="obr-head">
      <path id="obr-crest" fill="#d4b99b" d="M468.155 43.75c-91.479-9.988-145.37 23.246-155.675 61.579-10.304-38.333-64.195-71.567-155.675-61.579C64.476 53.833 27.63 0 27.63 0c9.438 37.788 14.505 76.567 158.421 97.45 105.488 15.304 123.167 100.242 126.125 129.596v10.033s-.012-2.458.304-6.629c.317 4.171.305 6.629.305 6.629v-10.033c2.962-29.354 20.637-114.292 126.125-129.596C582.826 76.567 587.893 37.788 597.335 0c0 0-36.846 53.833-129.18 43.75z"/>
      <path id="obr-head-left" fill="#c1b49a" d="M312.785 237.079c0 81.671-66.205 147.875-147.875 147.875-81.667 0-147.875-66.204-147.875-147.875 0-81.666 66.208-147.871 147.875-147.871 81.67 0 147.875 66.205 147.875 147.871z"/>
      <path id="obr-head-right" fill="#c1b49a" d="M608.535 237.079c0 81.671-66.209 147.875-147.875 147.875-81.671 0-147.875-66.204-147.875-147.875 0-81.666 66.204-147.871 147.875-147.871 81.666 0 147.875 66.205 147.875 147.871z"/>
    </g>
    <g id="obr-eyes">
      <g id="obr-eye-left">
        <path fill="#fff" d="M276.53 237.079c0 60.846-49.325 110.167-110.166 110.167-60.842 0-110.167-49.321-110.167-110.167 0-60.842 49.325-110.166 110.167-110.166 60.841 0 110.166 49.324 110.166 110.166z"/>
        <path id="obr-eyeball-left" fill="#404042" d="M85.535 258.538S98.697 318.2 166.364 318.2c67.662 0 82.091-59.662 82.091-59.662l-18.391-9.5s-9.117 55.904-63.7 55.904c-49.467 0-63.592-55.904-63.592-55.904l-17.237 9.5z"/>
      </g>
      <g id="obr-eye-right">
        <path fill="#fff" d="M569.372 237.079c0 60.846-49.325 110.167-110.167 110.167-60.841 0-110.166-49.321-110.166-110.167 0-60.842 49.325-110.166 110.166-110.166 60.842 0 110.167 49.324 110.167 110.166z"/>
        <path id="obr-eyeball-right" fill="#404042" d="M382.414 258.538s13.162 59.662 80.829 59.662c67.662 0 82.087-59.662 82.087-59.662l-18.387-9.5s-9.117 55.904-63.7 55.904c-49.467 0-63.596-55.904-63.596-55.904l-17.233 9.5z"/>
      </g>
    </g>
    <path id="obr-beak" fill="#ffce40" d="M312.785 291.438l-34.805 35.858 34.805 50.621 34.804-50.621-34.804-35.858z"/>
    <g id="obr-feet" fill="#faaf41">
      <path id="obr-foot-left" d="M195.88 666.379c-18.3 0-34.183 24.396-34.183 47.134 0 22.737 19.767 18.3 23.092 11.091 0 0 .554 13.308 11.091 13.308 10.538 0 11.092-13.308 11.092-13.308 3.325 7.209 23.092 11.646 23.092-11.091 0-22.738-15.884-47.134-34.184-47.134z"/>
      <path id="obr-foot-right" d="M429.689 666.379c-18.3 0-34.184 24.396-34.184 47.134 0 22.737 19.767 18.3 23.092 11.091 0 0 .554 13.308 11.092 13.308 10.537 0 11.091-13.308 11.091-13.308 3.325 7.209 23.092 11.646 23.092-11.091 0-22.738-15.883-47.134-34.183-47.134z"/>
    </g>
    <g id="obr-wings" fill="#c1b49a">
      <path id="obr-wing-left" d="M33.335 370.008c-39.655 11.03-44.946 74.838-10.396 149.305 34.55 74.47 83.966 90.575 83.966 90.575s-17.916-10.488-7.412-61.08c10.5-50.587 39.904-208.3-66.158-178.8z"/>
      <path id="obr-wing-right" d="M591.689 370.008c39.654 11.03 44.946 74.838 10.396 149.305-34.55 74.47-83.967 90.575-83.967 90.575s17.912-10.488 7.412-61.08c-10.5-50.587-39.904-208.3 66.159-178.8z"/>
    </g>
  </g>
</svg>
