<svg xmlns="http://www.w3.org/2000/svg" fill-rule="evenodd" stroke-linejoin="round" stroke-miterlimit="2" clip-rule="evenodd" viewBox="0 0 808 729">
  <g id="owl-yellow" fill-rule="nonzero">
    <path id="oy-body" fill="#f7ec2e" d="M403.888 17.458c-150.83 0-313.492 123.559-280.959 365.413 26.521 197.175 115.342 320.721 280.959 320.721 165.62 0 254.441-123.546 280.962-320.721C717.383 141.017 554.721 17.458 403.888 17.458z"/>
    <g id="oy-tummy">
      <path id="oy-tummy-bg" fill="#f4f097" d="M403.888 381.229c-166.83 0-192.859 157.759-195.884 231.842 46.479 58.071 111.092 90.521 195.884 90.521 84.795 0 149.408-32.45 195.887-90.521-3.025-74.083-29.054-231.842-195.887-231.842z"/>
      <path id="oy-tummy-feather" fill="#f4cc34" d="M312.05 466.996h27.508s-12.379 34.012-27.508 0z"/>
      <path id="oy-tummy-feather1" fill="#f4cc34" d="M339.558 466.996h27.509s-12.379 34.012-27.509 0z"/>
      <path id="oy-tummy-feather2" fill="#f4cc34" d="M367.067 466.996h27.504s-12.375 34.012-27.504 0z"/>
      <path id="oy-tummy-feather3" fill="#f4cc34" d="M394.571 466.996h27.508s-12.379 34.012-27.508 0z"/>
      <path id="oy-tummy-feather4" fill="#f4cc34" d="M422.079 466.996h27.509s-12.38 34.012-27.509 0z"/>
      <path id="oy-tummy-feather5" fill="#f4cc34" d="M449.588 466.996h27.504s-12.379 34.012-27.504 0z"/>
      <path id="oy-tummy-feather6" fill="#f4cc34" d="M477.092 466.996H504.6s-12.379 34.012-27.508 0z"/>
      <path id="oy-tummy-feather7" fill="#f4cc34" d="M257.037 506.921h27.509s-12.379 34.012-27.509 0z"/>
      <path id="oy-tummy-feather8" fill="#f4cc34" d="M284.546 506.921h27.504s-12.375 34.012-27.504 0z"/>
      <path id="oy-tummy-feather9" fill="#f4cc34" d="M312.05 506.921h27.508s-12.379 34.012-27.508 0z"/>
      <path id="oy-tummy-feather10" fill="#f4cc34" d="M339.558 506.921h27.509s-12.379 34.012-27.509 0z"/>
      <path id="oy-tummy-feather11" fill="#f4cc34" d="M367.067 506.921h27.504s-12.375 34.012-27.504 0z"/>
      <path id="oy-tummy-feather12" fill="#f4cc34" d="M394.571 506.921h27.508s-12.379 34.012-27.508 0z"/>
      <path id="oy-tummy-feather13" fill="#f4cc34" d="M422.079 506.921h27.509s-12.38 34.012-27.509 0z"/>
      <path id="oy-tummy-feather14" fill="#f4cc34" d="M449.588 506.921h27.504s-12.379 34.012-27.504 0z"/>
      <path id="oy-tummy-feather15" fill="#f4cc34" d="M477.092 506.921H504.6s-12.379 34.012-27.508 0z"/>
      <path id="oy-tummy-feather16" fill="#f4cc34" d="M504.6 506.921h27.504s-12.375 34.012-27.504 0z"/>
      <path id="oy-tummy-feather17" fill="#f4cc34" d="M532.104 506.921h27.509s-12.38 34.012-27.509 0z"/>
      <path id="oy-tummy-feather18" fill="#f4cc34" d="M257.037 549.804h27.509s-12.379 34.013-27.509 0z"/>
      <path id="oy-tummy-feather19" fill="#f4cc34" d="M284.546 549.804h27.504s-12.375 34.013-27.504 0z"/>
      <path id="oy-tummy-feather20" fill="#f4cc34" d="M312.05 549.804h27.508s-12.379 34.013-27.508 0z"/>
      <path id="oy-tummy-feather21" fill="#f4cc34" d="M339.558 549.804h27.509s-12.379 34.013-27.509 0z"/>
      <path id="oy-tummy-feather22" fill="#f4cc34" d="M367.067 549.804h27.504s-12.375 34.013-27.504 0z"/>
      <path id="oy-tummy-feather23" fill="#f4cc34" d="M394.571 549.804h27.508s-12.379 34.013-27.508 0z"/>
      <path id="oy-tummy-feather24" fill="#f4cc34" d="M422.079 549.804h27.509s-12.38 34.013-27.509 0z"/>
      <path id="oy-tummy-feather25" fill="#f4cc34" d="M449.588 549.804h27.504s-12.379 34.013-27.504 0z"/>
      <path id="oy-tummy-feather26" fill="#f4cc34" d="M477.092 549.804H504.6s-12.379 34.013-27.508 0z"/>
      <path id="oy-tummy-feather27" fill="#f4cc34" d="M504.6 549.804h27.504s-12.375 34.013-27.504 0z"/>
      <path id="oy-tummy-feather28" fill="#f4cc34" d="M532.104 549.804h27.509s-12.38 34.013-27.509 0z"/>
      <path id="oy-tummy-feather29" fill="#f4cc34" d="M284.546 592.688h27.504s-12.375 34.012-27.504 0z"/>
      <path id="oy-tummy-feather30" fill="#f4cc34" d="M312.05 592.688h27.508s-12.379 34.012-27.508 0z"/>
      <path id="oy-tummy-feather31" fill="#f4cc34" d="M339.558 592.688h27.509s-12.379 34.012-27.509 0z"/>
      <path id="oy-tummy-feather32" fill="#f4cc34" d="M367.067 592.688h27.504s-12.375 34.012-27.504 0z"/>
      <path id="oy-tummy-feather33" fill="#f4cc34" d="M394.571 592.688h27.508s-12.379 34.012-27.508 0z"/>
      <path id="oy-tummy-feather34" fill="#f4cc34" d="M422.079 592.688h27.509s-12.38 34.012-27.509 0z"/>
      <path id="oy-tummy-feather35" fill="#f4cc34" d="M449.588 592.688h27.504s-12.379 34.012-27.504 0z"/>
      <path id="oy-tummy-feather36" fill="#f4cc34" d="M477.092 592.688H504.6s-12.379 34.012-27.508 0z"/>
      <path id="oy-tummy-feather37" fill="#f4cc34" d="M504.6 592.688h27.504s-12.375 34.012-27.504 0z"/>
      <path id="oy-tummy-feather38" fill="#f4cc34" d="M312.05 635.571h27.508s-12.379 34.012-27.508 0z"/>
      <path id="oy-tummy-feather39" fill="#f4cc34" d="M339.558 635.571h27.509s-12.379 34.012-27.509 0z"/>
      <path id="oy-tummy-feather40" fill="#f4cc34" d="M367.067 635.571h27.504s-12.375 34.012-27.504 0z"/>
      <path id="oy-tummy-feather41" fill="#f4cc34" d="M394.571 635.571h27.508s-12.379 34.012-27.508 0z"/>
      <path id="oy-tummy-feather42" fill="#f4cc34" d="M422.079 635.571h27.509s-12.38 34.012-27.509 0z"/>
      <path id="oy-tummy-feather43" fill="#f4cc34" d="M449.588 635.571h27.504s-12.379 34.012-27.504 0z"/>
      <path id="oy-tummy-feather44" fill="#f4cc34" d="M477.092 635.571H504.6s-12.379 34.012-27.508 0z"/>
    </g>
    <path id="oy-head" fill="#f4cc34" d="M577.408 81.829C606.5 62.671 632.717 36.304 649.813 0c0 0-121.759 87.838-248.138 87.925C275.296 87.838 153.537 0 153.537 0c17.28 36.696 43.88 63.242 73.351 82.45-67.717 13.529-118.746 73.292-118.746 144.988 0 81.67 66.204 147.875 147.875 147.875 81.666 0 147.871-66.205 147.871-147.875 0-37.25 0-37.559 0 0 0 81.67 66.208 147.875 147.875 147.875 81.67 0 147.874-66.205 147.874-147.875 0-72.913-52.791-133.463-122.229-145.609z"/>
    <g id="oy-eyes">
      <g id="oy-eye-left">
        <path fill="#fff" d="M367.633 227.438c0 60.845-49.32 110.166-110.166 110.166-60.842 0-110.167-49.321-110.167-110.166 0-60.842 49.325-110.163 110.167-110.163 60.846 0 110.166 49.321 110.166 110.163z"/>
        <g id="oy-eyeball-left">
          <path fill="#404042" d="M315.879 227.438c0 32.262-26.15 58.412-58.412 58.412-32.259 0-58.409-26.15-58.409-58.412 0-32.259 26.15-58.409 58.409-58.409 32.262 0 58.412 26.15 58.412 58.409z"/>
          <path fill="#fff" d="M262.671 190.1c0 11.638-9.438 21.075-21.075 21.075-11.638 0-21.071-9.437-21.071-21.075 0-11.637 9.433-21.071 21.071-21.071 11.637 0 21.075 9.434 21.075 21.071zM293.171 264.779a9.428 9.428 0 01-9.429 9.429 9.428 9.428 0 01-9.43-9.429c0-5.208 4.221-9.433 9.43-9.433 5.208 0 9.429 4.225 9.429 9.433z"/>
        </g>
      </g>
      <g id="oy-eye-right">
        <path fill="#fff" d="M660.475 227.438c0 60.845-49.321 110.166-110.162 110.166-60.846 0-110.167-49.321-110.167-110.166 0-60.842 49.321-110.163 110.167-110.163 60.841 0 110.162 49.321 110.162 110.163z"/>
        <g id="oy-eyeball-right">
          <path fill="#404042" d="M591.483 227.438c0 22.741-18.433 41.175-41.17 41.175-22.742 0-41.176-18.434-41.176-41.175 0-22.738 18.434-41.171 41.176-41.171 22.737 0 41.17 18.433 41.17 41.171z"/>
          <path fill="#fff" d="M553.979 201.121c0 8.2-6.654 14.85-14.854 14.85-8.204 0-14.854-6.65-14.854-14.85 0-8.204 6.65-14.854 14.854-14.854 8.2 0 14.854 6.65 14.854 14.854zM575.479 253.758a6.646 6.646 0 01-6.646 6.65 6.647 6.647 0 01-6.65-6.65 6.646 6.646 0 016.65-6.645 6.645 6.645 0 016.646 6.645z"/>
        </g>
      </g>
    </g>
    <path id="oy-beak" fill="#f69220" d="M403.888 281.796l-34.801 35.858 34.801 50.621 34.804-50.621-34.804-35.858z"/>
    <g id="oy-feet" fill="#faaf41">
      <path id="oy-foot-left" d="M286.988 656.738c-18.3 0-34.188 24.4-34.188 47.133 0 22.737 19.767 18.3 23.096 11.092 0 0 .554 13.308 11.092 13.308 10.533 0 11.087-13.308 11.087-13.308 3.329 7.208 23.096 11.645 23.096-11.092 0-22.733-15.888-47.133-34.183-47.133z"/>
      <path id="oy-foot-right" d="M520.792 656.738c-18.3 0-34.184 24.4-34.184 47.133 0 22.737 19.767 18.3 23.096 11.092 0 0 .554 13.308 11.088 13.308 10.537 0 11.091-13.308 11.091-13.308 3.33 7.208 23.092 11.645 23.092-11.092 0-22.733-15.883-47.133-34.183-47.133z"/>
    </g>
    <g id="oy-wings" fill="#f4cc34">
      <path id="oy-wing-right" d="M642.529 376.638c45.342-25.292 102.654 8.758 165.25 130.283 0 0-48.825 9.987-67.604-16.446 0 0-27.054 37.204-52.304 0 0 0-51 17.779-71.433-23.479-13.967-28.204-6.863-71.971 26.091-90.358z"/>
      <path id="oy-wing-left" d="M165.246 376.638C119.908 351.346 62.596 385.396 0 506.921c0 0 48.825 9.987 67.6-16.446 0 0 27.058 37.204 52.308 0 0 0 51 17.779 71.434-23.479 13.966-28.204 6.862-71.971-26.096-90.358z"/>
    </g>
  </g>
</svg>
